<?xml version="1.0" standalone="no"?>
<!DOCTYPE svg PUBLIC "-//W3C//DTD SVG 20010904//EN"
 "http://www.w3.org/TR/2001/REC-SVG-20010904/DTD/svg10.dtd">
<svg version="1.0" xmlns="http://www.w3.org/2000/svg"
 width="512.000000pt" height="512.000000pt" viewBox="0 0 512.000000 512.000000"
 preserveAspectRatio="xMidYMid meet">

<g transform="translate(0.000000,512.000000) scale(0.100000,-0.100000)"
fill="#000000" stroke="none">
<path d="M793 4784 c-57 -21 -127 -99 -142 -158 -6 -25 -11 -103 -11 -175 l0
-130 -232 -3 c-257 -3 -272 -7 -337 -70 -71 -70 -66 24 -69 -1170 l-2 -1078
75 0 75 0 0 439 0 439 133 7 c72 3 976 5 2007 3 l1875 -3 3 -567 2 -568 -720
0 -720 0 0 -230 c0 -176 3 -231 13 -234 149 -43 218 -120 220 -244 1 -103 -52
-184 -149 -229 l-51 -23 -1283 2 -1282 3 -24 28 -24 28 0 500 0 499 -75 0 -76
0 3 -522 c3 -583 -1 -548 75 -622 72 -70 -3 -66 1395 -66 l1258 0 0 -160 0
-160 1195 0 1195 0 0 234 0 234 -37 7 c-143 27 -232 171 -192 312 19 71 97
146 172 168 l57 16 0 230 0 229 -400 0 -400 0 -2 1198 -3 1197 -22 41 c-30 56
-94 109 -148 123 -25 6 -134 11 -253 11 l-210 0 -4 153 c-4 174 -15 208 -88
270 -119 101 -305 56 -367 -90 -9 -22 -13 -79 -13 -183 l0 -150 -1049 0 -1050
0 -3 158 c-3 157 -3 159 -33 208 -59 94 -179 136 -282 98z m138 -163 l29 -29
0 -376 0 -376 -85 0 -86 0 3 381 3 381 28 24 c38 32 72 31 108 -5z m2544 19
c52 -20 55 -46 55 -440 l0 -360 -85 0 -85 0 0 378 c0 397 0 396 45 420 25 14
37 14 70 2z m-2835 -720 l0 -240 240 0 240 0 0 240 0 240 1040 0 1040 0 0
-240 0 -240 240 0 240 0 0 240 0 240 217 0 c209 0 218 -1 240 -22 l23 -21 0
-379 0 -378 -525 0 -525 0 0 -40 0 -40 -72 0 -73 0 0 37 0 38 -1342 3 -1343 2
0 381 c0 243 4 387 10 400 10 18 23 19 180 19 l170 0 0 -240z m2720 -2820 l0
-500 -170 0 -170 0 63 63 c66 66 115 148 141 236 23 78 21 213 -4 293 -44 143
-171 281 -302 329 -34 11 -38 17 -38 46 l0 33 240 0 240 0 0 -500z m1610 400
l0 -100 -41 -20 c-62 -32 -127 -103 -162 -178 -29 -61 -32 -76 -32 -162 1 -75
6 -107 24 -152 26 -68 102 -155 166 -193 l45 -26 0 -99 0 -100 -725 0 -725 0
0 565 0 565 725 0 725 0 0 -100z"/>
<path d="M3680 1355 l0 -75 440 0 440 0 0 75 0 75 -440 0 -440 0 0 -75z"/>
<path d="M3680 1035 l0 -75 440 0 440 0 0 75 0 75 -440 0 -440 0 0 -75z"/>
<path d="M3680 715 l0 -75 440 0 440 0 0 75 0 75 -440 0 -440 0 0 -75z"/>
<path d="M1284 2707 c-2 -7 -3 -114 -2 -237 l3 -225 233 -3 232 -2 0 240 0
240 -230 0 c-178 0 -232 -3 -236 -13z m316 -227 l0 -80 -85 0 -85 0 0 80 0 80
85 0 85 0 0 -80z"/>
<path d="M1924 2707 c-2 -7 -3 -114 -2 -237 l3 -225 233 -3 232 -2 0 240 0
240 -230 0 c-178 0 -232 -3 -236 -13z m316 -227 l0 -80 -85 0 -85 0 0 80 0 80
85 0 85 0 0 -80z"/>
<path d="M2565 2707 c-3 -7 -4 -114 -3 -237 l3 -225 235 0 235 0 0 235 0 235
-233 3 c-183 2 -234 0 -237 -11z m315 -227 l0 -80 -80 0 -80 0 0 80 0 80 80 0
80 0 0 -80z"/>
<path d="M640 1835 l0 -235 235 0 235 0 0 235 0 235 -235 0 -235 0 0 -235z
m320 5 l0 -80 -80 0 -80 0 0 80 0 80 80 0 80 0 0 -80z"/>
<path d="M1280 1835 l0 -235 235 0 235 0 0 235 0 235 -235 0 -235 0 0 -235z
m320 0 l0 -86 -82 3 -83 3 -3 83 -3 82 86 0 85 0 0 -85z"/>
<path d="M1922 1838 l3 -233 233 -3 232 -2 0 235 0 235 -235 0 -235 0 2 -232z
m318 -3 l0 -86 -82 3 -83 3 -3 83 -3 82 86 0 85 0 0 -85z"/>
<path d="M640 1195 l0 -235 235 0 235 0 0 235 0 235 -235 0 -235 0 0 -235z
m320 5 l0 -80 -80 0 -80 0 0 80 0 80 80 0 80 0 0 -80z"/>
<path d="M1280 1195 l0 -235 235 0 235 0 0 235 0 235 -235 0 -235 0 0 -235z
m320 0 l0 -86 -82 3 -83 3 -3 83 -3 82 86 0 85 0 0 -85z"/>
<path d="M1920 1195 l0 -235 235 0 235 0 0 235 0 235 -235 0 -235 0 0 -235z
m320 0 l0 -86 -82 3 -83 3 -3 83 -3 82 86 0 85 0 0 -85z"/>
</g>
</svg>
