<svg xmlns="http://www.w3.org/2000/svg" xmlns:v="https://svgstorm.com"
viewBox = "0 0 512 512"
width="512"
height="512">
<g fill="None" fill-opacity="0.0" stroke="#000000" stroke-opacity="0.01" stroke-width="0.3"><path d="
M 0.00 103.00 
C 0.66 89.53 11.98 78.71 26.00 81.00 C 40.02 83.28 45.41 79.15 58.00 81.00 C 70.59 82.85 63.94 63.05 65.00 56.00 C 66.06 48.95 64.49 43.62 70.30 39.30 C 76.11 34.97 77.91 32.23 85.25 32.20 C 92.59 32.17 96.82 32.28 102.10 36.91 C 107.38 41.53 109.49 45.01 110.20 51.25 C 110.91 57.48 111.38 72.92 111.00 81.00
C 181.00 81.00 251.00 81.00 321.00 81.00
C 320.37 72.64 321.39 56.37 321.92 49.92 C 322.45 43.46 327.98 36.82 333.30 34.29 C 338.63 31.76 346.61 30.82 352.75 33.39 C 358.90 35.97 363.40 39.55 365.58 45.77 C 367.75 51.99 368.49 59.93 367.00 72.00 C 365.51 84.07 383.41 80.85 393.00 81.00 C 402.59 81.15 412.38 78.68 419.08 82.92 C 425.78 87.15 430.10 89.80 431.26 97.75 C 432.43 105.70 430.32 118.75 431.00 129.00 C 431.68 139.25 430.70 152.01 431.00 163.00 C 431.30 173.99 430.86 186.67 431.00 198.00 C 431.14 209.33 430.94 221.56 431.00 233.00 C 431.06 244.44 430.97 255.49 431.00 267.00 C 431.03 278.51 430.98 290.41 431.00 302.00 C 431.02 313.59 430.99 325.39 431.00 337.00
C 458.00 337.00 485.00 337.00 512.00 337.00
L 512.00 0.00
L 0.00 0.00
L 0.00 103.00 Z"/>
</g>
<g fill="None" fill-opacity="0.0" stroke="#000000" stroke-opacity="1.00" stroke-width="0.3"><path d="
M 0.00 103.00 
L 0.00 312.00
C 2.33 312.00 4.67 312.00 7.00 312.00
C 9.67 312.00 12.33 312.00 15.00 312.00
C 15.00 282.67 15.00 253.33 15.00 224.00
C 18.03 219.67 30.27 224.28 36.00 223.00 C 41.73 221.72 51.26 223.55 58.00 223.00 C 64.74 222.45 73.85 223.26 81.00 223.00 C 88.15 222.74 95.65 223.11 103.00 223.00 C 110.35 222.89 118.56 223.05 126.00 223.00 C 133.44 222.95 140.52 223.02 148.00 223.00 C 155.48 222.98 163.51 223.01 171.00 223.00 C 178.49 222.99 185.51 223.00 193.00 223.00 C 200.49 223.00 208.52 223.00 216.00 223.00 C 223.48 223.00 230.56 223.00 238.00 223.00 C 245.44 223.00 252.53 222.99 260.00 223.00 C 267.47 223.01 275.53 222.98 283.00 223.00 C 290.47 223.02 297.55 222.95 305.00 223.00 C 312.45 223.05 320.60 222.88 328.00 223.00 C 335.40 223.12 342.75 222.73 350.00 223.00 C 357.25 223.27 366.04 222.43 373.00 223.00 C 379.96 223.57 388.76 221.67 395.00 223.00 C 401.24 224.33 412.88 219.71 417.00 224.00
C 417.54 230.05 416.82 235.88 417.00 242.00 C 417.18 248.12 417.01 254.86 417.00 261.00 C 416.99 267.14 417.22 273.97 417.00 280.00 C 416.78 286.03 417.62 292.21 417.00 298.00 C 416.38 303.79 418.34 311.66 417.00 317.00 C 415.66 322.34 419.95 331.78 417.00 336.00
C 414.16 340.06 403.42 335.87 398.00 337.00 C 392.58 338.13 383.22 336.44 377.00 337.00 C 370.78 337.56 362.49 336.63 356.00 337.00 C 349.51 337.37 342.55 336.58 336.00 337.00 C 329.45 337.42 321.42 336.28 315.00 337.00 C 308.58 337.72 299.91 335.50 294.00 337.00 C 288.09 338.50 277.68 333.72 273.00 337.00
C 273.00 352.33 273.00 367.67 273.00 383.00
C 276.75 387.30 288.00 385.83 291.25 392.75 C 294.50 399.67 298.86 406.30 296.01 414.01 C 293.15 421.72 290.73 426.31 283.25 430.25 C 275.78 434.20 266.98 432.89 258.00 433.00 C 249.02 433.11 238.24 432.95 229.00 433.00 C 219.76 433.05 210.33 432.98 201.00 433.00 C 191.67 433.02 182.43 432.99 173.00 433.00 C 163.57 433.01 153.48 433.00 144.00 433.00 C 134.52 433.00 125.50 433.00 116.00 433.00 C 106.50 433.00 96.51 433.00 87.00 433.00 C 77.49 433.00 68.53 433.00 59.00 433.00 C 49.47 433.00 39.57 433.00 30.00 433.00
C 6.42 433.00 16.51 405.91 15.00 388.00 C 13.49 370.09 16.13 345.51 15.00 327.00
C 12.33 327.00 9.67 327.00 7.00 327.00
C 5.37 327.16 2.33 328.94 0.00 328.00
L 0.00 427.00
C 5.01 447.33 17.26 448.15 41.00 447.00 C 64.74 445.85 93.18 447.54 118.00 447.00 C 142.82 446.46 169.67 447.28 195.00 447.00 C 220.33 446.72 247.50 447.21 273.00 447.00
C 273.00 458.00 273.00 469.00 273.00 480.00
C 352.67 480.00 432.33 480.00 512.00 480.00
L 512.00 433.00
C 501.04 432.76 488.16 422.85 488.02 408.97 C 487.88 395.09 498.64 384.26 512.00 383.00
L 512.00 337.00
C 485.00 337.00 458.00 337.00 431.00 337.00
C 430.99 325.39 431.02 313.59 431.00 302.00 C 430.98 290.41 431.03 278.51 431.00 267.00 C 430.97 255.49 431.06 244.44 431.00 233.00 C 430.94 221.56 431.14 209.33 431.00 198.00 C 430.86 186.67 431.30 173.99 431.00 163.00 C 430.70 152.01 431.68 139.25 431.00 129.00 C 430.32 118.75 432.43 105.70 431.26 97.75 C 430.10 89.80 425.78 87.15 419.08 82.92 C 412.38 78.68 402.59 81.15 393.00 81.00 C 383.41 80.85 365.51 84.07 367.00 72.00 C 368.49 59.93 367.75 51.99 365.58 45.77 C 363.40 39.55 358.90 35.97 352.75 33.39 C 346.61 30.82 338.63 31.76 333.30 34.29 C 327.98 36.82 322.45 43.46 321.92 49.92 C 321.39 56.37 320.37 72.64 321.00 81.00
C 251.00 81.00 181.00 81.00 111.00 81.00
C 111.38 72.92 110.91 57.48 110.20 51.25 C 109.49 45.01 107.38 41.53 102.10 36.91 C 96.82 32.28 92.59 32.17 85.25 32.20 C 77.91 32.23 76.11 34.97 70.30 39.30 C 64.49 43.62 66.06 48.95 65.00 56.00 C 63.94 63.05 70.59 82.85 58.00 81.00 C 45.41 79.15 40.02 83.28 26.00 81.00 C 11.98 78.71 0.66 89.53 0.00 103.00
M 96.00 128.00 
C 90.33 128.00 84.67 128.00 79.00 128.00
C 78.69 116.19 79.42 104.85 79.00 93.00 C 78.58 81.15 79.78 68.90 79.00 57.00 C 78.22 45.10 96.02 44.01 96.00 56.00 C 95.97 67.99 96.01 80.01 96.00 92.00 C 95.99 103.99 96.01 116.00 96.00 128.00
M 353.00 128.00 
C 347.33 128.00 341.67 128.00 336.00 128.00
C 337.17 116.40 334.45 94.57 336.00 84.00 C 337.55 73.43 329.73 47.22 344.03 47.02 C 358.32 46.83 352.00 72.20 353.00 83.00 C 354.00 93.80 352.25 116.15 353.00 128.00
M 311.00 184.00 
C 311.05 186.33 310.96 188.67 311.00 191.00
C 346.33 191.00 381.67 191.00 417.00 191.00
C 417.00 196.67 417.00 202.33 417.00 208.00
C 413.97 212.33 401.73 207.72 396.00 209.00 C 390.27 210.28 380.74 208.45 374.00 209.00 C 367.26 209.55 358.15 208.74 351.00 209.00 C 343.85 209.26 336.35 208.89 329.00 209.00 C 321.65 209.11 313.44 208.95 306.00 209.00 C 298.56 209.05 291.48 208.98 284.00 209.00 C 276.52 209.02 268.49 208.99 261.00 209.00 C 253.51 209.01 246.49 209.00 239.00 209.00 C 231.51 209.00 223.48 209.00 216.00 209.00 C 208.52 209.00 201.44 209.00 194.00 209.00 C 186.56 209.00 179.47 209.01 172.00 209.00 C 164.53 208.99 156.47 209.02 149.00 209.00 C 141.53 208.98 134.43 209.06 127.00 209.00 C 119.57 208.94 111.35 209.12 104.00 209.00 C 96.65 208.88 89.15 209.28 82.00 209.00 C 74.85 208.72 65.75 209.60 59.00 209.00 C 52.25 208.40 42.75 210.38 37.00 209.00 C 31.25 207.62 18.08 212.40 15.00 208.00
C 12.34 204.20 17.00 195.27 15.00 191.00
C 108.67 191.00 202.33 191.00 296.00 191.00
C 296.00 188.67 296.00 186.33 296.00 184.00
C 296.03 182.54 296.75 178.18 296.00 177.00
C 288.86 177.00 282.19 177.00 275.00 177.00 C 267.81 177.00 260.23 177.00 253.00 177.00 C 245.77 177.00 238.21 177.00 231.00 177.00 C 223.79 177.00 217.22 177.00 210.00 177.00 C 202.78 177.00 195.24 177.00 188.00 177.00 C 180.76 177.00 173.21 177.01 166.00 177.00 C 158.79 176.99 152.19 177.03 145.00 177.00 C 137.81 176.98 130.19 177.05 123.00 177.00 C 115.81 176.95 108.08 177.12 101.00 177.00 C 93.92 176.88 86.89 177.27 80.00 177.00 C 73.11 176.73 64.54 177.58 58.00 177.00 C 51.46 176.42 41.67 178.27 36.00 177.00 C 30.33 175.73 18.00 180.28 15.00 176.00
C 11.61 171.16 16.58 160.06 15.00 154.00 C 13.42 147.94 15.84 138.44 15.00 132.00 C 14.16 125.56 15.65 116.22 15.00 110.00 C 14.35 103.78 15.20 96.56 22.00 95.00
C 35.30 91.95 50.52 97.28 64.00 95.00
C 64.00 111.00 64.00 127.00 64.00 143.00
C 79.67 143.00 95.33 143.00 111.00 143.00
C 111.00 127.00 111.00 111.00 111.00 95.00
C 123.14 95.00 134.81 95.00 147.00 95.00 C 159.19 95.00 171.76 95.01 184.00 95.00 C 196.24 94.99 208.77 95.02 221.00 95.00 C 233.23 94.98 245.85 95.03 258.00 95.00 C 270.15 94.97 283.04 95.07 295.00 95.00 C 306.96 94.93 323.12 91.19 321.00 106.00 C 318.88 120.81 322.59 128.81 321.00 143.00
C 336.67 143.00 352.33 143.00 368.00 143.00
C 368.00 127.00 368.00 111.00 368.00 95.00
C 385.08 96.67 418.37 86.72 417.00 111.00 C 415.63 135.28 418.02 152.38 417.00 176.00
C 381.67 176.00 346.33 176.00 311.00 176.00
C 311.00 178.67 311.00 181.33 311.00 184.00
M 337.00 452.00 
C 337.00 454.89 338.35 463.36 336.00 465.00
C 332.88 467.18 324.01 464.40 320.00 465.00 C 315.99 465.60 308.01 465.60 304.00 465.00 C 299.99 464.40 291.12 467.18 288.00 465.00
C 285.30 463.11 286.50 447.36 288.00 445.00
C 291.84 438.99 299.70 439.20 303.75 431.75 C 307.81 424.30 310.71 418.30 311.00 409.00 C 311.29 399.70 308.01 393.43 304.25 385.75 C 300.48 378.08 292.10 377.68 288.00 372.00
C 286.33 369.69 285.44 353.79 288.00 352.00
C 291.62 349.47 299.40 353.17 304.00 352.00 C 308.60 350.83 314.92 352.58 320.00 352.00 C 325.08 351.42 331.77 352.43 337.00 352.00
C 337.00 385.33 337.00 418.67 337.00 452.00
M 497.00 452.00 
C 497.00 456.33 497.00 460.67 497.00 465.00
C 448.67 465.00 400.33 465.00 352.00 465.00
C 352.00 460.67 352.00 456.33 352.00 452.00
C 352.00 418.67 352.00 385.33 352.00 352.00
C 400.34 352.00 448.66 352.00 497.00 352.00
C 499.09 363.10 497.08 373.10 487.75 377.75 C 478.43 382.41 477.47 390.57 474.02 399.02 C 470.58 407.48 474.02 420.39 478.25 427.75 C 482.49 435.10 488.89 441.85 497.00 444.00
C 497.00 446.67 497.00 449.33 497.00 452.00 Z"/>
</g>
<g fill="None" fill-opacity="0.0" stroke="#C8D9F8" stroke-opacity="1.00" stroke-width="0.3"><path d="
M 96.00 128.00 
C 96.01 116.00 95.99 103.99 96.00 92.00 C 96.01 80.01 95.97 67.99 96.00 56.00 C 96.02 44.01 78.22 45.10 79.00 57.00 C 79.78 68.90 78.58 81.15 79.00 93.00 C 79.42 104.85 78.69 116.19 79.00 128.00
C 84.67 128.00 90.33 128.00 96.00 128.00 Z"/>
</g>
<g fill="None" fill-opacity="0.0" stroke="#C6D7F5" stroke-opacity="1.00" stroke-width="0.3"><path d="
M 353.00 128.00 
C 352.25 116.15 354.00 93.80 353.00 83.00 C 352.00 72.20 358.32 46.83 344.03 47.02 C 329.73 47.22 337.55 73.43 336.00 84.00 C 334.45 94.57 337.17 116.40 336.00 128.00
C 341.67 128.00 347.33 128.00 353.00 128.00 Z"/>
</g>
<g fill="None" fill-opacity="0.0" stroke="#FC3604" stroke-opacity="1.00" stroke-width="0.3"><path d="
M 15.00 176.00 
C 19.33 176.00 23.67 176.00 28.00 176.00
C 28.63 149.41 26.72 122.18 29.00 96.00
C 26.81 95.48 23.38 97.14 22.00 95.00
C 15.20 96.56 14.35 103.78 15.00 110.00 C 15.65 116.22 14.16 125.56 15.00 132.00 C 15.84 138.44 13.42 147.94 15.00 154.00 C 16.58 160.06 11.61 171.16 15.00 176.00 Z"/>
</g>
<g fill="None" fill-opacity="0.0" stroke="#FD6946" stroke-opacity="1.00" stroke-width="0.3"><path d="
M 28.00 176.00 
C 35.38 176.00 42.60 176.00 50.00 176.00 C 57.40 176.00 64.54 176.00 72.00 176.00 C 79.46 176.00 87.52 176.00 95.00 176.00 C 102.48 176.00 109.52 175.99 117.00 176.00 C 124.48 176.01 132.54 175.99 140.00 176.00 C 147.46 176.01 154.59 175.97 162.00 176.00 C 169.41 176.03 176.60 175.94 184.00 176.00 C 191.40 176.06 199.67 175.88 207.00 176.00 C 214.33 176.12 221.88 175.72 229.00 176.00 C 236.12 176.28 245.31 175.41 252.00 176.00 C 258.69 176.59 268.38 174.63 274.00 176.00 C 279.62 177.37 293.21 172.62 296.00 177.00
C 296.75 178.18 296.03 182.54 296.00 184.00
C 301.00 184.00 306.00 184.00 311.00 184.00
C 311.00 181.33 311.00 178.67 311.00 176.00
C 346.33 176.00 381.67 176.00 417.00 176.00
C 418.02 152.38 415.63 135.28 417.00 111.00 C 418.37 86.72 385.08 96.67 368.00 95.00
C 368.00 111.00 368.00 127.00 368.00 143.00
C 352.33 143.00 336.67 143.00 321.00 143.00
C 322.59 128.81 318.88 120.81 321.00 106.00 C 323.12 91.19 306.96 94.93 295.00 95.00 C 283.04 95.07 270.15 94.97 258.00 95.00 C 245.85 95.03 233.23 94.98 221.00 95.00 C 208.77 95.02 196.24 94.99 184.00 95.00 C 171.76 95.01 159.19 95.00 147.00 95.00 C 134.81 95.00 123.14 95.00 111.00 95.00
C 111.00 111.00 111.00 127.00 111.00 143.00
C 95.33 143.00 79.67 143.00 64.00 143.00
C 64.00 127.00 64.00 111.00 64.00 95.00
C 50.52 97.28 35.30 91.95 22.00 95.00
C 23.38 97.14 26.81 95.48 29.00 96.00
C 26.72 122.18 28.63 149.41 28.00 176.00
M 208.00 128.00 
C 208.00 133.00 208.00 138.00 208.00 143.00
C 203.00 143.00 198.00 143.00 193.00 143.00
C 194.42 139.29 190.77 131.78 193.78 128.78 C 196.79 125.78 204.27 129.41 208.00 128.00
M 238.00 143.00 
C 234.87 145.19 227.52 141.36 224.00 143.00
C 224.00 138.00 224.00 133.00 224.00 128.00
C 228.67 128.00 233.33 128.00 238.00 128.00
C 239.95 129.36 239.88 141.68 238.00 143.00 Z"/>
</g>
<g fill="None" fill-opacity="0.0" stroke="#FFF9F7" stroke-opacity="1.00" stroke-width="0.3"><path d="
M 208.00 128.00 
C 204.27 129.41 196.79 125.78 193.78 128.78 C 190.77 131.78 194.42 139.29 193.00 143.00
C 198.00 143.00 203.00 143.00 208.00 143.00
C 208.00 138.00 208.00 133.00 208.00 128.00 Z"/>
</g>
<g fill="None" fill-opacity="0.0" stroke="#FFFCFB" stroke-opacity="1.00" stroke-width="0.3"><path d="
M 238.00 143.00 
C 238.00 138.00 238.00 133.00 238.00 128.00
C 233.33 128.00 228.67 128.00 224.00 128.00
C 224.00 133.00 224.00 138.00 224.00 143.00
C 227.52 141.36 234.87 145.19 238.00 143.00 Z"/>
</g>
<g fill="None" fill-opacity="0.0" stroke="#FFAE9B" stroke-opacity="1.00" stroke-width="0.3"><path d="
M 238.00 143.00 
C 239.88 141.68 239.95 129.36 238.00 128.00
C 238.00 133.00 238.00 138.00 238.00 143.00 Z"/>
</g>
<g fill="None" fill-opacity="0.0" stroke="#542217" stroke-opacity="1.00" stroke-width="0.3"><path d="
M 296.00 177.00 
C 293.21 172.62 279.62 177.37 274.00 176.00 C 268.38 174.63 258.69 176.59 252.00 176.00 C 245.31 175.41 236.12 176.28 229.00 176.00 C 221.88 175.72 214.33 176.12 207.00 176.00 C 199.67 175.88 191.40 176.06 184.00 176.00 C 176.60 175.94 169.41 176.03 162.00 176.00 C 154.59 175.97 147.46 176.01 140.00 176.00 C 132.54 175.99 124.48 176.01 117.00 176.00 C 109.52 175.99 102.48 176.00 95.00 176.00 C 87.52 176.00 79.46 176.00 72.00 176.00 C 64.54 176.00 57.40 176.00 50.00 176.00 C 42.60 176.00 35.38 176.00 28.00 176.00
C 23.67 176.00 19.33 176.00 15.00 176.00
C 18.00 180.28 30.33 175.73 36.00 177.00 C 41.67 178.27 51.46 176.42 58.00 177.00 C 64.54 177.58 73.11 176.73 80.00 177.00 C 86.89 177.27 93.92 176.88 101.00 177.00 C 108.08 177.12 115.81 176.95 123.00 177.00 C 130.19 177.05 137.81 176.98 145.00 177.00 C 152.19 177.03 158.79 176.99 166.00 177.00 C 173.21 177.01 180.76 177.00 188.00 177.00 C 195.24 177.00 202.78 177.00 210.00 177.00 C 217.22 177.00 223.79 177.00 231.00 177.00 C 238.21 177.00 245.77 177.00 253.00 177.00 C 260.23 177.00 267.81 177.00 275.00 177.00 C 282.19 177.00 288.86 177.00 296.00 177.00 Z"/>
</g>
<g fill="None" fill-opacity="0.0" stroke="#F63301" stroke-opacity="1.00" stroke-width="0.3"><path d="
M 15.00 208.00 
C 149.00 208.00 283.00 208.00 417.00 208.00
C 417.00 202.33 417.00 196.67 417.00 191.00
C 381.67 191.00 346.33 191.00 311.00 191.00
C 310.96 188.67 311.05 186.33 311.00 184.00
C 306.00 184.00 301.00 184.00 296.00 184.00
C 296.00 186.33 296.00 188.67 296.00 191.00
C 202.33 191.00 108.67 191.00 15.00 191.00
C 17.00 195.27 12.34 204.20 15.00 208.00 Z"/>
</g>
<g fill="None" fill-opacity="0.0" stroke="#641400" stroke-opacity="1.00" stroke-width="0.3"><path d="
M 417.00 208.00 
C 283.00 208.00 149.00 208.00 15.00 208.00
C 18.08 212.40 31.25 207.62 37.00 209.00 C 42.75 210.38 52.25 208.40 59.00 209.00 C 65.75 209.60 74.85 208.72 82.00 209.00 C 89.15 209.28 96.65 208.88 104.00 209.00 C 111.35 209.12 119.57 208.94 127.00 209.00 C 134.43 209.06 141.53 208.98 149.00 209.00 C 156.47 209.02 164.53 208.99 172.00 209.00 C 179.47 209.01 186.56 209.00 194.00 209.00 C 201.44 209.00 208.52 209.00 216.00 209.00 C 223.48 209.00 231.51 209.00 239.00 209.00 C 246.49 209.00 253.51 209.01 261.00 209.00 C 268.49 208.99 276.52 209.02 284.00 209.00 C 291.48 208.98 298.56 209.05 306.00 209.00 C 313.44 208.95 321.65 209.11 329.00 209.00 C 336.35 208.89 343.85 209.26 351.00 209.00 C 358.15 208.74 367.26 209.55 374.00 209.00 C 380.74 208.45 390.27 210.28 396.00 209.00 C 401.73 207.72 413.97 212.33 417.00 208.00 Z"/>
</g>
<g fill="None" fill-opacity="0.0" stroke="#878787" stroke-opacity="1.00" stroke-width="0.3"><path d="
M 15.00 224.00 
C 19.33 224.00 23.67 224.00 28.00 224.00
C 157.33 224.00 286.67 223.97 416.00 224.00
C 416.50 224.00 417.00 224.00 417.00 224.00
C 412.88 219.71 401.24 224.33 395.00 223.00 C 388.76 221.67 379.96 223.57 373.00 223.00 C 366.04 222.43 357.25 223.27 350.00 223.00 C 342.75 222.73 335.40 223.12 328.00 223.00 C 320.60 222.88 312.45 223.05 305.00 223.00 C 297.55 222.95 290.47 223.02 283.00 223.00 C 275.53 222.98 267.47 223.01 260.00 223.00 C 252.53 222.99 245.44 223.00 238.00 223.00 C 230.56 223.00 223.48 223.00 216.00 223.00 C 208.52 223.00 200.49 223.00 193.00 223.00 C 185.51 223.00 178.49 222.99 171.00 223.00 C 163.51 223.01 155.48 222.98 148.00 223.00 C 140.52 223.02 133.44 222.95 126.00 223.00 C 118.56 223.05 110.35 222.89 103.00 223.00 C 95.65 223.11 88.15 222.74 81.00 223.00 C 73.85 223.26 64.74 222.45 58.00 223.00 C 51.26 223.55 41.73 221.72 36.00 223.00 C 30.27 224.28 18.03 219.67 15.00 224.00 Z"/>
</g>
<g fill="None" fill-opacity="0.0" stroke="#CCDCFA" stroke-opacity="1.00" stroke-width="0.3"><path d="
M 7.00 312.00 
C 5.24 315.77 9.35 323.64 7.00 327.00
C 9.67 327.00 12.33 327.00 15.00 327.00
C 16.13 345.51 13.49 370.09 15.00 388.00 C 16.51 405.91 6.42 433.00 30.00 433.00
C 24.59 430.08 29.14 417.89 28.00 412.00 C 26.86 406.11 28.49 396.00 28.00 389.00 C 27.51 382.00 28.23 372.45 28.00 365.00 C 27.77 357.55 28.10 349.67 28.00 342.00 C 27.90 334.33 28.05 325.77 28.00 318.00 C 27.95 310.23 28.02 302.81 28.00 295.00 C 27.98 287.19 28.01 278.84 28.00 271.00 C 27.99 263.16 28.00 255.86 28.00 248.00 C 28.00 240.14 28.00 231.90 28.00 224.00
C 23.67 224.00 19.33 224.00 15.00 224.00
C 15.00 253.33 15.00 282.67 15.00 312.00
C 12.33 312.00 9.67 312.00 7.00 312.00 Z"/>
</g>
<g fill="None" fill-opacity="0.0" stroke="#FDFDFD" stroke-opacity="1.00" stroke-width="0.3"><path d="
M 30.00 433.00 
C 39.57 433.00 49.47 433.00 59.00 433.00 C 68.53 433.00 77.49 433.00 87.00 433.00 C 96.51 433.00 106.50 433.00 116.00 433.00 C 125.50 433.00 134.52 433.00 144.00 433.00 C 153.48 433.00 163.57 433.01 173.00 433.00 C 182.43 432.99 191.67 433.02 201.00 433.00 C 210.33 432.98 219.76 433.05 229.00 433.00 C 238.24 432.95 249.02 433.11 258.00 433.00 C 266.98 432.89 275.78 434.20 283.25 430.25 C 290.73 426.31 293.15 421.72 296.01 414.01 C 298.86 406.30 294.50 399.67 291.25 392.75 C 288.00 385.83 276.75 387.30 273.00 383.00
C 269.97 379.52 271.84 364.68 272.00 360.00 C 272.16 355.32 269.55 339.42 273.00 337.00
C 277.68 333.72 288.09 338.50 294.00 337.00 C 299.91 335.50 308.58 337.72 315.00 337.00 C 321.42 336.28 329.45 337.42 336.00 337.00 C 342.55 336.58 349.51 337.37 356.00 337.00 C 362.49 336.63 370.78 337.56 377.00 337.00 C 383.22 336.44 392.58 338.13 398.00 337.00 C 403.42 335.87 414.16 340.06 417.00 336.00
C 417.66 299.84 412.67 260.82 416.00 224.00
C 286.67 223.97 157.33 224.00 28.00 224.00
C 28.00 231.90 28.00 240.14 28.00 248.00 C 28.00 255.86 27.99 263.16 28.00 271.00 C 28.01 278.84 27.98 287.19 28.00 295.00 C 28.02 302.81 27.95 310.23 28.00 318.00 C 28.05 325.77 27.90 334.33 28.00 342.00 C 28.10 349.67 27.77 357.55 28.00 365.00 C 28.23 372.45 27.51 382.00 28.00 389.00 C 28.49 396.00 26.86 406.11 28.00 412.00 C 29.14 417.89 24.59 430.08 30.00 433.00
M 175.00 241.00 
C 177.05 243.92 174.50 252.21 175.00 256.00 C 175.50 259.79 175.71 267.15 175.00 271.00 C 174.29 274.85 177.16 283.92 175.00 287.00
C 172.96 289.92 163.75 287.66 160.00 288.00 C 156.25 288.34 147.81 288.53 144.00 288.00 C 140.19 287.47 130.14 290.05 128.00 287.00
C 125.83 283.90 128.64 276.04 128.00 272.00 C 127.36 267.96 127.77 260.13 128.00 256.00 C 128.23 251.87 126.26 243.74 129.00 241.00
C 132.14 237.86 147.47 239.92 152.00 240.00 C 156.53 240.08 172.65 237.64 175.00 241.00
M 192.00 287.00 
C 190.69 272.50 190.69 255.50 192.00 241.00
C 195.14 237.72 210.11 239.83 215.00 240.00 C 219.89 240.17 234.79 237.59 238.67 240.33 C 242.55 243.07 239.99 259.39 240.00 264.00 C 240.01 268.61 242.50 284.03 239.22 287.22 C 235.94 290.41 220.85 288.03 216.00 288.00 C 211.15 287.97 195.22 290.35 192.00 287.00
M 304.00 288.00 
C 295.58 287.23 285.23 289.02 277.00 288.00 C 268.77 286.98 256.59 292.41 256.00 282.00 C 255.41 271.58 257.39 264.88 256.00 254.00 C 254.61 243.12 257.81 238.63 269.00 240.00 C 280.19 241.37 286.12 239.82 297.00 240.00 C 307.88 240.18 303.39 251.16 304.00 260.00 C 304.61 268.84 303.54 279.04 304.00 288.00
M 239.00 352.00 
C 234.44 355.19 226.74 350.13 221.00 352.00 C 215.26 353.87 208.49 350.10 202.00 352.00 C 195.51 353.90 189.94 349.77 192.00 343.00 C 194.06 336.23 189.98 329.90 192.00 324.00 C 194.02 318.10 188.68 309.74 192.00 305.00
C 195.05 300.64 204.51 305.76 210.00 304.00 C 215.49 302.24 223.59 305.86 230.00 304.00 C 236.41 302.14 241.99 306.35 240.00 313.00 C 238.01 319.65 241.88 327.40 240.00 333.00 C 238.12 338.60 243.48 348.86 239.00 352.00
M 111.00 305.00 
C 111.00 320.67 111.00 336.33 111.00 352.00
C 95.33 352.00 79.67 352.00 64.00 352.00
C 64.00 336.33 64.00 320.67 64.00 305.00
C 79.67 305.00 95.33 305.00 111.00 305.00
M 175.00 305.00 
C 175.00 320.67 175.00 336.33 175.00 352.00
C 168.44 350.72 158.19 353.71 152.00 352.00 C 145.81 350.29 133.31 355.52 128.78 351.22 C 124.25 346.92 129.70 335.25 128.00 329.00 C 126.30 322.75 129.27 311.69 128.00 305.00
C 143.67 305.00 159.33 305.00 175.00 305.00
M 111.00 369.00 
C 111.00 384.67 111.00 400.33 111.00 416.00
C 95.33 416.00 79.67 416.00 64.00 416.00
C 64.00 400.33 64.00 384.67 64.00 369.00
C 79.67 369.00 95.33 369.00 111.00 369.00
M 175.00 369.00 
C 175.00 384.67 175.00 400.33 175.00 416.00
C 159.33 416.00 143.67 416.00 128.00 416.00
C 128.00 400.33 128.00 384.67 128.00 369.00
C 143.67 369.00 159.33 369.00 175.00 369.00
M 239.00 415.00 
C 236.38 417.62 229.06 415.95 225.00 416.00 C 220.94 416.05 213.07 416.83 209.00 416.00 C 204.93 415.17 196.24 418.27 193.00 416.00
C 190.08 413.96 192.34 404.75 192.00 401.00 C 191.66 397.25 191.47 388.81 192.00 385.00 C 192.53 381.19 189.95 371.14 193.00 369.00
C 195.92 366.95 204.21 369.50 208.00 369.00 C 211.79 368.50 219.15 368.29 223.00 369.00 C 226.85 369.71 235.92 366.84 239.00 369.00
C 242.02 371.12 239.53 380.12 240.00 384.00 C 240.47 387.88 240.30 395.93 240.00 400.00 C 239.70 404.07 241.74 412.26 239.00 415.00 Z"/>
</g>
<g fill="None" fill-opacity="0.0" stroke="#CFCFCF" stroke-opacity="1.00" stroke-width="0.3"><path d="
M 417.00 336.00 
C 419.95 331.78 415.66 322.34 417.00 317.00 C 418.34 311.66 416.38 303.79 417.00 298.00 C 417.62 292.21 416.78 286.03 417.00 280.00 C 417.22 273.97 416.99 267.14 417.00 261.00 C 417.01 254.86 417.18 248.12 417.00 242.00 C 416.82 235.88 417.54 230.05 417.00 224.00
C 417.00 224.00 416.50 224.00 416.00 224.00
C 412.67 260.82 417.66 299.84 417.00 336.00 Z"/>
</g>
<g fill="None" fill-opacity="0.0" stroke="#777777" stroke-opacity="1.00" stroke-width="0.3"><path d="
M 129.00 241.00 
C 132.40 238.62 139.68 242.09 144.00 241.00 C 148.32 239.91 154.22 241.54 159.00 241.00 C 163.78 240.46 170.08 241.40 175.00 241.00
C 172.65 237.64 156.53 240.08 152.00 240.00 C 147.47 239.92 132.14 237.86 129.00 241.00 Z"/>
</g>
<g fill="None" fill-opacity="0.0" stroke="#7A7A7A" stroke-opacity="1.00" stroke-width="0.3"><path d="
M 192.00 241.00 
C 192.00 240.96 193.00 241.00 193.00 241.00
C 208.33 241.00 223.67 241.00 239.00 241.00
C 239.00 256.33 239.00 271.67 239.00 287.00
C 223.67 287.00 208.33 287.00 193.00 287.00
C 192.50 287.00 192.00 287.00 192.00 287.00
C 195.22 290.35 211.15 287.97 216.00 288.00 C 220.85 288.03 235.94 290.41 239.22 287.22 C 242.50 284.03 240.01 268.61 240.00 264.00 C 239.99 259.39 242.55 243.07 238.67 240.33 C 234.79 237.59 219.89 240.17 215.00 240.00 C 210.11 239.83 195.14 237.72 192.00 241.00 Z"/>
</g>
<g fill="None" fill-opacity="0.0" stroke="#737373" stroke-opacity="1.00" stroke-width="0.3"><path d="
M 304.00 288.00 
C 303.54 279.04 304.61 268.84 304.00 260.00 C 303.39 251.16 307.88 240.18 297.00 240.00 C 286.12 239.82 280.19 241.37 269.00 240.00 C 257.81 238.63 254.61 243.12 256.00 254.00 C 257.39 264.88 255.41 271.58 256.00 282.00 C 256.59 292.41 268.77 286.98 277.00 288.00 C 285.23 289.02 295.58 287.23 304.00 288.00
M 303.00 241.00 
C 303.00 256.33 303.00 271.67 303.00 287.00
C 287.67 287.00 272.33 287.00 257.00 287.00
C 257.00 271.67 257.00 256.33 257.00 241.00
C 272.33 241.00 287.67 241.00 303.00 241.00 Z"/>
</g>
<g fill="None" fill-opacity="0.0" stroke="#000000" stroke-opacity="1.00" stroke-width="0.3"><path d="
M 128.00 287.00 
C 143.67 287.00 159.33 287.00 175.00 287.00
C 177.16 283.92 174.29 274.85 175.00 271.00 C 175.71 267.15 175.50 259.79 175.00 256.00 C 174.50 252.21 177.05 243.92 175.00 241.00
C 170.08 241.40 163.78 240.46 159.00 241.00 C 154.22 241.54 148.32 239.91 144.00 241.00 C 139.68 242.09 132.40 238.62 129.00 241.00
C 126.26 243.74 128.23 251.87 128.00 256.00 C 127.77 260.13 127.36 267.96 128.00 272.00 C 128.64 276.04 125.83 283.90 128.00 287.00
M 160.00 256.00 
C 160.84 257.20 160.84 270.80 160.00 272.00
C 158.59 274.01 144.36 273.95 143.00 272.00
C 141.60 270.00 142.62 257.38 144.00 256.00
C 145.77 254.23 158.49 253.85 160.00 256.00 Z"/>
</g>
<g fill="None" fill-opacity="0.0" stroke="#5F5F5F" stroke-opacity="1.00" stroke-width="0.3"><path d="
M 192.00 287.00 
C 192.00 287.00 192.50 287.00 193.00 287.00
C 194.31 272.50 194.31 255.50 193.00 241.00
C 193.00 241.00 192.00 240.96 192.00 241.00
C 190.69 255.50 190.69 272.50 192.00 287.00 Z"/>
</g>
<g fill="None" fill-opacity="0.0" stroke="#000000" stroke-opacity="1.00" stroke-width="0.3"><path d="
M 193.00 287.00 
C 208.33 287.00 223.67 287.00 239.00 287.00
C 239.00 271.67 239.00 256.33 239.00 241.00
C 223.67 241.00 208.33 241.00 193.00 241.00
C 194.31 255.50 194.31 272.50 193.00 287.00
M 207.00 273.00 
C 207.00 267.00 207.00 261.00 207.00 255.00
C 217.32 255.51 224.99 251.46 225.00 264.00 C 225.01 276.54 217.31 272.47 207.00 273.00 Z"/>
</g>
<g fill="None" fill-opacity="0.0" stroke="#000000" stroke-opacity="1.00" stroke-width="0.3"><path d="
M 303.00 241.00 
C 287.67 241.00 272.33 241.00 257.00 241.00
C 257.00 256.33 257.00 271.67 257.00 287.00
C 272.33 287.00 287.67 287.00 303.00 287.00
C 303.00 271.67 303.00 256.33 303.00 241.00
M 289.00 273.00 
C 281.40 271.17 271.57 277.74 271.00 267.00 C 270.43 256.26 272.28 254.46 283.00 255.00 C 293.72 255.54 287.17 265.43 289.00 273.00 Z"/>
</g>
<g fill="None" fill-opacity="0.0" stroke="#656E7D" stroke-opacity="1.00" stroke-width="0.3"><path d="
M 144.00 256.00 
C 147.58 253.49 155.98 257.88 160.00 256.00
C 158.49 253.85 145.77 254.23 144.00 256.00 Z"/>
</g>
<g fill="None" fill-opacity="0.0" stroke="#666F7F" stroke-opacity="1.00" stroke-width="0.3"><path d="
M 207.00 273.00 
C 217.31 272.47 225.01 276.54 225.00 264.00 C 224.99 251.46 217.32 255.51 207.00 255.00
C 207.00 261.00 207.00 267.00 207.00 273.00
M 224.00 256.00 
C 224.00 261.33 224.00 266.67 224.00 272.00
C 218.67 272.00 213.33 272.00 208.00 272.00
C 208.00 266.67 208.00 261.33 208.00 256.00
C 213.33 256.00 218.67 256.00 224.00 256.00 Z"/>
</g>
<g fill="None" fill-opacity="0.0" stroke="#677080" stroke-opacity="1.00" stroke-width="0.3"><path d="
M 289.00 273.00 
C 287.17 265.43 293.72 255.54 283.00 255.00 C 272.28 254.46 270.43 256.26 271.00 267.00 C 271.57 277.74 281.40 271.17 289.00 273.00
M 288.00 256.00 
C 288.00 261.33 288.00 266.67 288.00 272.00
C 282.67 272.00 277.33 272.00 272.00 272.00
C 272.00 266.67 272.00 261.33 272.00 256.00
C 277.33 256.00 282.67 256.00 288.00 256.00 Z"/>
</g>
<g fill="None" fill-opacity="0.0" stroke="#C7D8F6" stroke-opacity="1.00" stroke-width="0.3"><path d="
M 143.00 272.00 
C 148.67 272.00 154.33 272.00 160.00 272.00
C 160.84 270.80 160.84 257.20 160.00 256.00
C 155.98 257.88 147.58 253.49 144.00 256.00
C 142.62 257.38 141.60 270.00 143.00 272.00 Z"/>
</g>
<g fill="None" fill-opacity="0.0" stroke="#CBDCFB" stroke-opacity="1.00" stroke-width="0.3"><path d="
M 224.00 256.00 
C 218.67 256.00 213.33 256.00 208.00 256.00
C 208.00 261.33 208.00 266.67 208.00 272.00
C 213.33 272.00 218.67 272.00 224.00 272.00
C 224.00 266.67 224.00 261.33 224.00 256.00 Z"/>
</g>
<g fill="None" fill-opacity="0.0" stroke="#CBDCFB" stroke-opacity="1.00" stroke-width="0.3"><path d="
M 288.00 256.00 
C 282.67 256.00 277.33 256.00 272.00 256.00
C 272.00 261.33 272.00 266.67 272.00 272.00
C 277.33 272.00 282.67 272.00 288.00 272.00
C 288.00 266.67 288.00 261.33 288.00 256.00 Z"/>
</g>
<g fill="None" fill-opacity="0.0" stroke="#697282" stroke-opacity="1.00" stroke-width="0.3"><path d="
M 160.00 272.00 
C 154.33 272.00 148.67 272.00 143.00 272.00
C 144.36 273.95 158.59 274.01 160.00 272.00 Z"/>
</g>
<g fill="None" fill-opacity="0.0" stroke="#6F6F6F" stroke-opacity="1.00" stroke-width="0.3"><path d="
M 175.00 287.00 
C 159.33 287.00 143.67 287.00 128.00 287.00
C 130.14 290.05 140.19 287.47 144.00 288.00 C 147.81 288.53 156.25 288.34 160.00 288.00 C 163.75 287.66 172.96 289.92 175.00 287.00 Z"/>
</g>
<g fill="None" fill-opacity="0.0" stroke="#8F8F8F" stroke-opacity="1.00" stroke-width="0.3"><path d="
M 192.00 305.00 
C 207.67 305.00 223.33 305.00 239.00 305.00
C 239.00 320.67 239.00 336.33 239.00 352.00
C 243.48 348.86 238.12 338.60 240.00 333.00 C 241.88 327.40 238.01 319.65 240.00 313.00 C 241.99 306.35 236.41 302.14 230.00 304.00 C 223.59 305.86 215.49 302.24 210.00 304.00 C 204.51 305.76 195.05 300.64 192.00 305.00 Z"/>
</g>
<g fill="None" fill-opacity="0.0" stroke="#000000" stroke-opacity="1.00" stroke-width="0.3"><path d="
M 111.00 305.00 
C 95.33 305.00 79.67 305.00 64.00 305.00
C 64.00 320.67 64.00 336.33 64.00 352.00
C 79.67 352.00 95.33 352.00 111.00 352.00
C 111.00 336.33 111.00 320.67 111.00 305.00
M 96.00 320.00 
C 96.00 325.67 96.00 331.33 96.00 337.00
C 90.33 337.00 84.67 337.00 79.00 337.00
C 79.00 331.33 79.00 325.67 79.00 320.00
C 84.67 320.00 90.33 320.00 96.00 320.00 Z"/>
</g>
<g fill="None" fill-opacity="0.0" stroke="#000000" stroke-opacity="1.00" stroke-width="0.3"><path d="
M 175.00 305.00 
C 159.33 305.00 143.67 305.00 128.00 305.00
C 129.27 311.69 126.30 322.75 128.00 329.00 C 129.70 335.25 124.25 346.92 128.78 351.22 C 133.31 355.52 145.81 350.29 152.00 352.00 C 158.19 353.71 168.44 350.72 175.00 352.00
C 175.00 336.33 175.00 320.67 175.00 305.00
M 160.00 320.00 
C 160.00 325.67 160.00 331.33 160.00 337.00
C 155.87 335.33 147.12 339.57 143.78 336.22 C 140.44 332.87 144.67 324.16 143.00 320.00
C 148.67 320.00 154.33 320.00 160.00 320.00 Z"/>
</g>
<g fill="None" fill-opacity="0.0" stroke="#000000" stroke-opacity="1.00" stroke-width="0.3"><path d="
M 239.00 352.00 
C 239.00 336.33 239.00 320.67 239.00 305.00
C 223.33 305.00 207.67 305.00 192.00 305.00
C 188.68 309.74 194.02 318.10 192.00 324.00 C 189.98 329.90 194.06 336.23 192.00 343.00 C 189.94 349.77 195.51 353.90 202.00 352.00 C 208.49 350.10 215.26 353.87 221.00 352.00 C 226.74 350.13 234.44 355.19 239.00 352.00
M 224.00 336.00 
C 222.26 337.74 209.76 338.22 207.78 336.22 C 205.80 334.22 206.26 321.74 208.00 320.00
C 209.74 318.26 222.24 317.78 224.22 319.78 C 226.20 321.78 225.74 334.26 224.00 336.00 Z"/>
</g>
<g fill="None" fill-opacity="0.0" stroke="#000000" stroke-opacity="0.06" stroke-width="0.3"><path d="
M 0.00 328.00 
C 2.33 328.94 5.37 327.16 7.00 327.00
C 9.35 323.64 5.24 315.77 7.00 312.00
C 4.67 312.00 2.33 312.00 0.00 312.00
L 0.00 328.00 Z"/>
</g>
<g fill="None" fill-opacity="0.0" stroke="#515865" stroke-opacity="1.00" stroke-width="0.3"><path d="
M 208.00 320.00 
C 211.58 317.49 219.98 321.88 224.00 320.00
C 224.00 325.33 224.00 330.67 224.00 336.00
C 225.74 334.26 226.20 321.78 224.22 319.78 C 222.24 317.78 209.74 318.26 208.00 320.00 Z"/>
</g>
<g fill="None" fill-opacity="0.0" stroke="#F76644" stroke-opacity="1.00" stroke-width="0.3"><path d="
M 96.00 320.00 
C 90.33 320.00 84.67 320.00 79.00 320.00
C 79.00 325.67 79.00 331.33 79.00 337.00
C 84.67 337.00 90.33 337.00 96.00 337.00
C 96.00 331.33 96.00 325.67 96.00 320.00 Z"/>
</g>
<g fill="None" fill-opacity="0.0" stroke="#C3D4F1" stroke-opacity="1.00" stroke-width="0.3"><path d="
M 160.00 320.00 
C 154.33 320.00 148.67 320.00 143.00 320.00
C 144.67 324.16 140.44 332.87 143.78 336.22 C 147.12 339.57 155.87 335.33 160.00 337.00
C 160.00 331.33 160.00 325.67 160.00 320.00 Z"/>
</g>
<g fill="None" fill-opacity="0.0" stroke="#C2D2F0" stroke-opacity="1.00" stroke-width="0.3"><path d="
M 224.00 336.00 
C 224.00 330.67 224.00 325.33 224.00 320.00
C 219.98 321.88 211.58 317.49 208.00 320.00
C 206.26 321.74 205.80 334.22 207.78 336.22 C 209.76 338.22 222.26 337.74 224.00 336.00 Z"/>
</g>
<g fill="None" fill-opacity="0.0" stroke="#878787" stroke-opacity="1.00" stroke-width="0.3"><path d="
M 273.00 383.00 
C 273.00 367.67 273.00 352.33 273.00 337.00
C 269.55 339.42 272.16 355.32 272.00 360.00 C 271.84 364.68 269.97 379.52 273.00 383.00 Z"/>
</g>
<g fill="None" fill-opacity="0.0" stroke="#6F1F0B" stroke-opacity="1.00" stroke-width="0.3"><path d="
M 288.00 372.00 
C 286.63 369.22 288.00 362.17 288.00 359.00
C 288.00 356.67 288.00 354.33 288.00 352.00
C 285.44 353.79 286.33 369.69 288.00 372.00 Z"/>
</g>
<g fill="None" fill-opacity="0.0" stroke="#FB6845" stroke-opacity="1.00" stroke-width="0.3"><path d="
M 288.00 359.00 
C 327.95 368.92 337.52 430.40 301.00 451.00
C 311.76 453.32 324.49 451.34 336.00 452.00
C 336.50 452.00 337.00 452.00 337.00 452.00
C 337.00 418.67 337.00 385.33 337.00 352.00
C 331.77 352.43 325.08 351.42 320.00 352.00 C 314.92 352.58 308.60 350.83 304.00 352.00 C 299.40 353.17 291.62 349.47 288.00 352.00
C 288.00 354.33 288.00 356.67 288.00 359.00 Z"/>
</g>
<g fill="None" fill-opacity="0.0" stroke="#FCEB87" stroke-opacity="1.00" stroke-width="0.3"><path d="
M 352.00 452.00 
C 400.34 452.00 448.66 452.00 497.00 452.00
C 497.00 449.33 497.00 446.67 497.00 444.00
C 488.89 441.85 482.49 435.10 478.25 427.75 C 474.02 420.39 470.58 407.48 474.02 399.02 C 477.47 390.57 478.43 382.41 487.75 377.75 C 497.08 373.10 499.09 363.10 497.00 352.00
C 448.66 352.00 400.34 352.00 352.00 352.00
C 352.00 385.33 352.00 418.67 352.00 452.00
M 456.00 369.00 
C 456.00 374.00 456.00 379.00 456.00 384.00
C 426.67 384.00 397.33 384.00 368.00 384.00
C 368.00 379.00 368.00 374.00 368.00 369.00
C 397.33 369.00 426.67 369.00 456.00 369.00
M 456.00 401.00 
C 456.00 406.00 456.00 411.00 456.00 416.00
C 426.67 416.00 397.33 416.00 368.00 416.00
C 368.00 411.00 368.00 406.00 368.00 401.00
C 397.33 401.00 426.67 401.00 456.00 401.00
M 456.00 433.00 
C 456.00 438.00 456.00 443.00 456.00 448.00
C 426.67 448.00 397.33 448.00 368.00 448.00
C 368.00 443.00 368.00 438.00 368.00 433.00
C 397.33 433.00 426.67 433.00 456.00 433.00 Z"/>
</g>
<g fill="None" fill-opacity="0.0" stroke="#FA3502" stroke-opacity="1.00" stroke-width="0.3"><path d="
M 288.00 372.00 
C 292.10 377.68 300.48 378.08 304.25 385.75 C 308.01 393.43 311.29 399.70 311.00 409.00 C 310.71 418.30 307.81 424.30 303.75 431.75 C 299.70 439.20 291.84 438.99 288.00 445.00
C 285.57 450.62 289.82 459.12 288.00 465.00
C 291.12 467.18 299.99 464.40 304.00 465.00 C 308.01 465.60 315.99 465.60 320.00 465.00 C 324.01 464.40 332.88 467.18 336.00 465.00
C 336.29 460.69 335.61 456.30 336.00 452.00
C 324.49 451.34 311.76 453.32 301.00 451.00
C 337.52 430.40 327.95 368.92 288.00 359.00
C 288.00 362.17 286.63 369.22 288.00 372.00 Z"/>
</g>
<g fill="None" fill-opacity="0.0" stroke="#000000" stroke-opacity="1.00" stroke-width="0.3"><path d="
M 111.00 369.00 
C 95.33 369.00 79.67 369.00 64.00 369.00
C 64.00 384.67 64.00 400.33 64.00 416.00
C 79.67 416.00 95.33 416.00 111.00 416.00
C 111.00 400.33 111.00 384.67 111.00 369.00
M 96.00 384.00 
C 96.00 389.67 96.00 395.33 96.00 401.00
C 90.33 401.00 84.67 401.00 79.00 401.00
C 79.00 395.33 79.00 389.67 79.00 384.00
C 84.67 384.00 90.33 384.00 96.00 384.00 Z"/>
</g>
<g fill="None" fill-opacity="0.0" stroke="#000000" stroke-opacity="1.00" stroke-width="0.3"><path d="
M 175.00 369.00 
C 159.33 369.00 143.67 369.00 128.00 369.00
C 128.00 384.67 128.00 400.33 128.00 416.00
C 143.67 416.00 159.33 416.00 175.00 416.00
C 175.00 400.33 175.00 384.67 175.00 369.00
M 160.00 384.00 
C 160.00 389.67 160.00 395.33 160.00 401.00
C 154.33 401.00 148.67 401.00 143.00 401.00
C 143.00 395.33 143.00 389.67 143.00 384.00
C 148.67 384.00 154.33 384.00 160.00 384.00 Z"/>
</g>
<g fill="None" fill-opacity="0.0" stroke="#5F5F5F" stroke-opacity="1.00" stroke-width="0.3"><path d="
M 193.00 416.00 
C 193.00 400.33 193.00 384.67 193.00 369.00
C 189.95 371.14 192.53 381.19 192.00 385.00 C 191.47 388.81 191.66 397.25 192.00 401.00 C 192.34 404.75 190.08 413.96 193.00 416.00 Z"/>
</g>
<g fill="None" fill-opacity="0.0" stroke="#000000" stroke-opacity="1.00" stroke-width="0.3"><path d="
M 193.00 416.00 
C 196.24 418.27 204.93 415.17 209.00 416.00 C 213.07 416.83 220.94 416.05 225.00 416.00 C 229.06 415.95 236.38 417.62 239.00 415.00
C 241.38 411.60 237.91 404.32 239.00 400.00 C 240.09 395.68 238.46 389.78 239.00 385.00 C 239.54 380.22 238.60 373.92 239.00 369.00
C 235.92 366.84 226.85 369.71 223.00 369.00 C 219.15 368.29 211.79 368.50 208.00 369.00 C 204.21 369.50 195.92 366.95 193.00 369.00
C 193.00 384.67 193.00 400.33 193.00 416.00
M 224.00 401.00 
C 222.01 402.39 210.01 401.99 207.78 400.22 C 205.55 398.45 207.83 386.97 207.00 384.00
C 212.67 384.00 218.33 384.00 224.00 384.00
C 226.01 385.41 225.95 399.64 224.00 401.00 Z"/>
</g>
<g fill="None" fill-opacity="0.0" stroke="#878787" stroke-opacity="1.00" stroke-width="0.3"><path d="
M 239.00 415.00 
C 241.74 412.26 239.70 404.07 240.00 400.00 C 240.30 395.93 240.47 387.88 240.00 384.00 C 239.53 380.12 242.02 371.12 239.00 369.00
C 238.60 373.92 239.54 380.22 239.00 385.00 C 238.46 389.78 240.09 395.68 239.00 400.00 C 237.91 404.32 241.38 411.60 239.00 415.00 Z"/>
</g>
<g fill="None" fill-opacity="0.0" stroke="#000000" stroke-opacity="1.00" stroke-width="0.3"><path d="
M 456.00 369.00 
C 426.67 369.00 397.33 369.00 368.00 369.00
C 368.00 374.00 368.00 379.00 368.00 384.00
C 397.33 384.00 426.67 384.00 456.00 384.00
C 456.00 379.00 456.00 374.00 456.00 369.00 Z"/>
</g>
<g fill="None" fill-opacity="0.0" stroke="#000000" stroke-opacity="0.02" stroke-width="0.3"><path d="
M 512.00 433.00 
L 512.00 383.00
C 498.64 384.26 487.88 395.09 488.02 408.97 C 488.16 422.85 501.04 432.76 512.00 433.00 Z"/>
</g>
<g fill="None" fill-opacity="0.0" stroke="#F96745" stroke-opacity="1.00" stroke-width="0.3"><path d="
M 96.00 384.00 
C 90.33 384.00 84.67 384.00 79.00 384.00
C 79.00 389.67 79.00 395.33 79.00 401.00
C 84.67 401.00 90.33 401.00 96.00 401.00
C 96.00 395.33 96.00 389.67 96.00 384.00 Z"/>
</g>
<g fill="None" fill-opacity="0.0" stroke="#C4D5F3" stroke-opacity="1.00" stroke-width="0.3"><path d="
M 160.00 384.00 
C 154.33 384.00 148.67 384.00 143.00 384.00
C 143.00 389.67 143.00 395.33 143.00 401.00
C 148.67 401.00 154.33 401.00 160.00 401.00
C 160.00 395.33 160.00 389.67 160.00 384.00 Z"/>
</g>
<g fill="None" fill-opacity="0.0" stroke="#C3D4F1" stroke-opacity="1.00" stroke-width="0.3"><path d="
M 224.00 401.00 
C 224.00 395.33 224.00 389.67 224.00 384.00
C 218.33 384.00 212.67 384.00 207.00 384.00
C 207.83 386.97 205.55 398.45 207.78 400.22 C 210.01 401.99 222.01 402.39 224.00 401.00 Z"/>
</g>
<g fill="None" fill-opacity="0.0" stroke="#565E6B" stroke-opacity="1.00" stroke-width="0.3"><path d="
M 224.00 401.00 
C 225.95 399.64 226.01 385.41 224.00 384.00
C 224.00 389.67 224.00 395.33 224.00 401.00 Z"/>
</g>
<g fill="None" fill-opacity="0.0" stroke="#000000" stroke-opacity="1.00" stroke-width="0.3"><path d="
M 456.00 401.00 
C 426.67 401.00 397.33 401.00 368.00 401.00
C 368.00 406.00 368.00 411.00 368.00 416.00
C 397.33 416.00 426.67 416.00 456.00 416.00
C 456.00 411.00 456.00 406.00 456.00 401.00 Z"/>
</g>
<g fill="None" fill-opacity="0.0" stroke="#000000" stroke-opacity="0.01" stroke-width="0.3"><path d="
M 0.00 512.00 
L 512.00 512.00
L 512.00 480.00
C 432.33 480.00 352.67 480.00 273.00 480.00
C 273.00 469.00 273.00 458.00 273.00 447.00
C 247.50 447.21 220.33 446.72 195.00 447.00 C 169.67 447.28 142.82 446.46 118.00 447.00 C 93.18 447.54 64.74 445.85 41.00 447.00 C 17.26 448.15 5.01 447.33 0.00 427.00
L 0.00 512.00 Z"/>
</g>
<g fill="None" fill-opacity="0.0" stroke="#000000" stroke-opacity="1.00" stroke-width="0.3"><path d="
M 456.00 433.00 
C 426.67 433.00 397.33 433.00 368.00 433.00
C 368.00 438.00 368.00 443.00 368.00 448.00
C 397.33 448.00 426.67 448.00 456.00 448.00
C 456.00 443.00 456.00 438.00 456.00 433.00 Z"/>
</g>
<g fill="None" fill-opacity="0.0" stroke="#6E1600" stroke-opacity="1.00" stroke-width="0.3"><path d="
M 288.00 465.00 
C 289.82 459.12 285.57 450.62 288.00 445.00
C 286.50 447.36 285.30 463.11 288.00 465.00 Z"/>
</g>
<g fill="None" fill-opacity="0.0" stroke="#A52302" stroke-opacity="1.00" stroke-width="0.3"><path d="
M 336.00 465.00 
C 338.35 463.36 337.00 454.89 337.00 452.00
C 337.00 452.00 336.50 452.00 336.00 452.00
C 335.61 456.30 336.29 460.69 336.00 465.00 Z"/>
</g>
<g fill="None" fill-opacity="0.0" stroke="#FDE108" stroke-opacity="1.00" stroke-width="0.3"><path d="
M 497.00 452.00 
C 448.66 452.00 400.34 452.00 352.00 452.00
C 352.00 456.33 352.00 460.67 352.00 465.00
C 400.33 465.00 448.67 465.00 497.00 465.00
C 497.00 460.67 497.00 456.33 497.00 452.00 Z"/>
</g>
<g fill="#000000" fill-opacity="0.01" stroke="None">
<path d="
M 0.00 103.00 
C 0.66 89.53 11.98 78.71 26.00 81.00 C 40.02 83.28 45.41 79.15 58.00 81.00 C 70.59 82.85 63.94 63.05 65.00 56.00 C 66.06 48.95 64.49 43.62 70.30 39.30 C 76.11 34.97 77.91 32.23 85.25 32.20 C 92.59 32.17 96.82 32.28 102.10 36.91 C 107.38 41.53 109.49 45.01 110.20 51.25 C 110.91 57.48 111.38 72.92 111.00 81.00
C 181.00 81.00 251.00 81.00 321.00 81.00
C 320.37 72.64 321.39 56.37 321.92 49.92 C 322.45 43.46 327.98 36.82 333.30 34.29 C 338.63 31.76 346.61 30.82 352.75 33.39 C 358.90 35.97 363.40 39.55 365.58 45.77 C 367.75 51.99 368.49 59.93 367.00 72.00 C 365.51 84.07 383.41 80.85 393.00 81.00 C 402.59 81.15 412.38 78.68 419.08 82.92 C 425.78 87.15 430.10 89.80 431.26 97.75 C 432.43 105.70 430.32 118.75 431.00 129.00 C 431.68 139.25 430.70 152.01 431.00 163.00 C 431.30 173.99 430.86 186.67 431.00 198.00 C 431.14 209.33 430.94 221.56 431.00 233.00 C 431.06 244.44 430.97 255.49 431.00 267.00 C 431.03 278.51 430.98 290.41 431.00 302.00 C 431.02 313.59 430.99 325.39 431.00 337.00
C 458.00 337.00 485.00 337.00 512.00 337.00
L 512.00 0.00
L 0.00 0.00
L 0.00 103.00 Z"/>
</g>
<g fill="#000000" fill-opacity="1.00" stroke="None">
<path d="
M 0.00 103.00 
L 0.00 312.00
C 2.33 312.00 4.67 312.00 7.00 312.00
C 9.67 312.00 12.33 312.00 15.00 312.00
C 15.00 282.67 15.00 253.33 15.00 224.00
C 18.03 219.67 30.27 224.28 36.00 223.00 C 41.73 221.72 51.26 223.55 58.00 223.00 C 64.74 222.45 73.85 223.26 81.00 223.00 C 88.15 222.74 95.65 223.11 103.00 223.00 C 110.35 222.89 118.56 223.05 126.00 223.00 C 133.44 222.95 140.52 223.02 148.00 223.00 C 155.48 222.98 163.51 223.01 171.00 223.00 C 178.49 222.99 185.51 223.00 193.00 223.00 C 200.49 223.00 208.52 223.00 216.00 223.00 C 223.48 223.00 230.56 223.00 238.00 223.00 C 245.44 223.00 252.53 222.99 260.00 223.00 C 267.47 223.01 275.53 222.98 283.00 223.00 C 290.47 223.02 297.55 222.95 305.00 223.00 C 312.45 223.05 320.60 222.88 328.00 223.00 C 335.40 223.12 342.75 222.73 350.00 223.00 C 357.25 223.27 366.04 222.43 373.00 223.00 C 379.96 223.57 388.76 221.67 395.00 223.00 C 401.24 224.33 412.88 219.71 417.00 224.00
C 417.54 230.05 416.82 235.88 417.00 242.00 C 417.18 248.12 417.01 254.86 417.00 261.00 C 416.99 267.14 417.22 273.97 417.00 280.00 C 416.78 286.03 417.62 292.21 417.00 298.00 C 416.38 303.79 418.34 311.66 417.00 317.00 C 415.66 322.34 419.95 331.78 417.00 336.00
C 414.16 340.06 403.42 335.87 398.00 337.00 C 392.58 338.13 383.22 336.44 377.00 337.00 C 370.78 337.56 362.49 336.63 356.00 337.00 C 349.51 337.37 342.55 336.58 336.00 337.00 C 329.45 337.42 321.42 336.28 315.00 337.00 C 308.58 337.72 299.91 335.50 294.00 337.00 C 288.09 338.50 277.68 333.72 273.00 337.00
C 273.00 352.33 273.00 367.67 273.00 383.00
C 276.75 387.30 288.00 385.83 291.25 392.75 C 294.50 399.67 298.86 406.30 296.01 414.01 C 293.15 421.72 290.73 426.31 283.25 430.25 C 275.78 434.20 266.98 432.89 258.00 433.00 C 249.02 433.11 238.24 432.95 229.00 433.00 C 219.76 433.05 210.33 432.98 201.00 433.00 C 191.67 433.02 182.43 432.99 173.00 433.00 C 163.57 433.01 153.48 433.00 144.00 433.00 C 134.52 433.00 125.50 433.00 116.00 433.00 C 106.50 433.00 96.51 433.00 87.00 433.00 C 77.49 433.00 68.53 433.00 59.00 433.00 C 49.47 433.00 39.57 433.00 30.00 433.00
C 6.42 433.00 16.51 405.91 15.00 388.00 C 13.49 370.09 16.13 345.51 15.00 327.00
C 12.33 327.00 9.67 327.00 7.00 327.00
C 5.37 327.16 2.33 328.94 0.00 328.00
L 0.00 427.00
C 5.01 447.33 17.26 448.15 41.00 447.00 C 64.74 445.85 93.18 447.54 118.00 447.00 C 142.82 446.46 169.67 447.28 195.00 447.00 C 220.33 446.72 247.50 447.21 273.00 447.00
C 273.00 458.00 273.00 469.00 273.00 480.00
C 352.67 480.00 432.33 480.00 512.00 480.00
L 512.00 433.00
C 501.04 432.76 488.16 422.85 488.02 408.97 C 487.88 395.09 498.64 384.26 512.00 383.00
L 512.00 337.00
C 485.00 337.00 458.00 337.00 431.00 337.00
C 430.99 325.39 431.02 313.59 431.00 302.00 C 430.98 290.41 431.03 278.51 431.00 267.00 C 430.97 255.49 431.06 244.44 431.00 233.00 C 430.94 221.56 431.14 209.33 431.00 198.00 C 430.86 186.67 431.30 173.99 431.00 163.00 C 430.70 152.01 431.68 139.25 431.00 129.00 C 430.32 118.75 432.43 105.70 431.26 97.75 C 430.10 89.80 425.78 87.15 419.08 82.92 C 412.38 78.68 402.59 81.15 393.00 81.00 C 383.41 80.85 365.51 84.07 367.00 72.00 C 368.49 59.93 367.75 51.99 365.58 45.77 C 363.40 39.55 358.90 35.97 352.75 33.39 C 346.61 30.82 338.63 31.76 333.30 34.29 C 327.98 36.82 322.45 43.46 321.92 49.92 C 321.39 56.37 320.37 72.64 321.00 81.00
C 251.00 81.00 181.00 81.00 111.00 81.00
C 111.38 72.92 110.91 57.48 110.20 51.25 C 109.49 45.01 107.38 41.53 102.10 36.91 C 96.82 32.28 92.59 32.17 85.25 32.20 C 77.91 32.23 76.11 34.97 70.30 39.30 C 64.49 43.62 66.06 48.95 65.00 56.00 C 63.94 63.05 70.59 82.85 58.00 81.00 C 45.41 79.15 40.02 83.28 26.00 81.00 C 11.98 78.71 0.66 89.53 0.00 103.00
M 96.00 128.00 
C 90.33 128.00 84.67 128.00 79.00 128.00
C 78.69 116.19 79.42 104.85 79.00 93.00 C 78.58 81.15 79.78 68.90 79.00 57.00 C 78.22 45.10 96.02 44.01 96.00 56.00 C 95.97 67.99 96.01 80.01 96.00 92.00 C 95.99 103.99 96.01 116.00 96.00 128.00
M 353.00 128.00 
C 347.33 128.00 341.67 128.00 336.00 128.00
C 337.17 116.40 334.45 94.57 336.00 84.00 C 337.55 73.43 329.73 47.22 344.03 47.02 C 358.32 46.83 352.00 72.20 353.00 83.00 C 354.00 93.80 352.25 116.15 353.00 128.00
M 311.00 184.00 
C 311.05 186.33 310.96 188.67 311.00 191.00
C 346.33 191.00 381.67 191.00 417.00 191.00
C 417.00 196.67 417.00 202.33 417.00 208.00
C 413.97 212.33 401.73 207.72 396.00 209.00 C 390.27 210.28 380.74 208.45 374.00 209.00 C 367.26 209.55 358.15 208.74 351.00 209.00 C 343.85 209.26 336.35 208.89 329.00 209.00 C 321.65 209.11 313.44 208.95 306.00 209.00 C 298.56 209.05 291.48 208.98 284.00 209.00 C 276.52 209.02 268.49 208.99 261.00 209.00 C 253.51 209.01 246.49 209.00 239.00 209.00 C 231.51 209.00 223.48 209.00 216.00 209.00 C 208.52 209.00 201.44 209.00 194.00 209.00 C 186.56 209.00 179.47 209.01 172.00 209.00 C 164.53 208.99 156.47 209.02 149.00 209.00 C 141.53 208.98 134.43 209.06 127.00 209.00 C 119.57 208.94 111.35 209.12 104.00 209.00 C 96.65 208.88 89.15 209.28 82.00 209.00 C 74.85 208.72 65.75 209.60 59.00 209.00 C 52.25 208.40 42.75 210.38 37.00 209.00 C 31.25 207.62 18.08 212.40 15.00 208.00
C 12.34 204.20 17.00 195.27 15.00 191.00
C 108.67 191.00 202.33 191.00 296.00 191.00
C 296.00 188.67 296.00 186.33 296.00 184.00
C 296.03 182.54 296.75 178.18 296.00 177.00
C 288.86 177.00 282.19 177.00 275.00 177.00 C 267.81 177.00 260.23 177.00 253.00 177.00 C 245.77 177.00 238.21 177.00 231.00 177.00 C 223.79 177.00 217.22 177.00 210.00 177.00 C 202.78 177.00 195.24 177.00 188.00 177.00 C 180.76 177.00 173.21 177.01 166.00 177.00 C 158.79 176.99 152.19 177.03 145.00 177.00 C 137.81 176.98 130.19 177.05 123.00 177.00 C 115.81 176.95 108.08 177.12 101.00 177.00 C 93.92 176.88 86.89 177.27 80.00 177.00 C 73.11 176.73 64.54 177.58 58.00 177.00 C 51.46 176.42 41.67 178.27 36.00 177.00 C 30.33 175.73 18.00 180.28 15.00 176.00
C 11.61 171.16 16.58 160.06 15.00 154.00 C 13.42 147.94 15.84 138.44 15.00 132.00 C 14.16 125.56 15.65 116.22 15.00 110.00 C 14.35 103.78 15.20 96.56 22.00 95.00
C 35.30 91.95 50.52 97.28 64.00 95.00
C 64.00 111.00 64.00 127.00 64.00 143.00
C 79.67 143.00 95.33 143.00 111.00 143.00
C 111.00 127.00 111.00 111.00 111.00 95.00
C 123.14 95.00 134.81 95.00 147.00 95.00 C 159.19 95.00 171.76 95.01 184.00 95.00 C 196.24 94.99 208.77 95.02 221.00 95.00 C 233.23 94.98 245.85 95.03 258.00 95.00 C 270.15 94.97 283.04 95.07 295.00 95.00 C 306.96 94.93 323.12 91.19 321.00 106.00 C 318.88 120.81 322.59 128.81 321.00 143.00
C 336.67 143.00 352.33 143.00 368.00 143.00
C 368.00 127.00 368.00 111.00 368.00 95.00
C 385.08 96.67 418.37 86.72 417.00 111.00 C 415.63 135.28 418.02 152.38 417.00 176.00
C 381.67 176.00 346.33 176.00 311.00 176.00
C 311.00 178.67 311.00 181.33 311.00 184.00
M 337.00 452.00 
C 337.00 454.89 338.35 463.36 336.00 465.00
C 332.88 467.18 324.01 464.40 320.00 465.00 C 315.99 465.60 308.01 465.60 304.00 465.00 C 299.99 464.40 291.12 467.18 288.00 465.00
C 285.30 463.11 286.50 447.36 288.00 445.00
C 291.84 438.99 299.70 439.20 303.75 431.75 C 307.81 424.30 310.71 418.30 311.00 409.00 C 311.29 399.70 308.01 393.43 304.25 385.75 C 300.48 378.08 292.10 377.68 288.00 372.00
C 286.33 369.69 285.44 353.79 288.00 352.00
C 291.62 349.47 299.40 353.17 304.00 352.00 C 308.60 350.83 314.92 352.58 320.00 352.00 C 325.08 351.42 331.77 352.43 337.00 352.00
C 337.00 385.33 337.00 418.67 337.00 452.00
M 497.00 452.00 
C 497.00 456.33 497.00 460.67 497.00 465.00
C 448.67 465.00 400.33 465.00 352.00 465.00
C 352.00 460.67 352.00 456.33 352.00 452.00
C 352.00 418.67 352.00 385.33 352.00 352.00
C 400.34 352.00 448.66 352.00 497.00 352.00
C 499.09 363.10 497.08 373.10 487.75 377.75 C 478.43 382.41 477.47 390.57 474.02 399.02 C 470.58 407.48 474.02 420.39 478.25 427.75 C 482.49 435.10 488.89 441.85 497.00 444.00
C 497.00 446.67 497.00 449.33 497.00 452.00 Z"/>
</g>
<g fill="#C8D9F8" fill-opacity="1.00" stroke="None">
<path d="
M 96.00 128.00 
C 96.01 116.00 95.99 103.99 96.00 92.00 C 96.01 80.01 95.97 67.99 96.00 56.00 C 96.02 44.01 78.22 45.10 79.00 57.00 C 79.78 68.90 78.58 81.15 79.00 93.00 C 79.42 104.85 78.69 116.19 79.00 128.00
C 84.67 128.00 90.33 128.00 96.00 128.00 Z"/>
</g>
<g fill="#C6D7F5" fill-opacity="1.00" stroke="None">
<path d="
M 353.00 128.00 
C 352.25 116.15 354.00 93.80 353.00 83.00 C 352.00 72.20 358.32 46.83 344.03 47.02 C 329.73 47.22 337.55 73.43 336.00 84.00 C 334.45 94.57 337.17 116.40 336.00 128.00
C 341.67 128.00 347.33 128.00 353.00 128.00 Z"/>
</g>
<g fill="#FC3604" fill-opacity="1.00" stroke="None">
<path d="
M 15.00 176.00 
C 19.33 176.00 23.67 176.00 28.00 176.00
C 28.63 149.41 26.72 122.18 29.00 96.00
C 26.81 95.48 23.38 97.14 22.00 95.00
C 15.20 96.56 14.35 103.78 15.00 110.00 C 15.65 116.22 14.16 125.56 15.00 132.00 C 15.84 138.44 13.42 147.94 15.00 154.00 C 16.58 160.06 11.61 171.16 15.00 176.00 Z"/>
</g>
<g fill="#FD6946" fill-opacity="1.00" stroke="None">
<path d="
M 28.00 176.00 
C 35.38 176.00 42.60 176.00 50.00 176.00 C 57.40 176.00 64.54 176.00 72.00 176.00 C 79.46 176.00 87.52 176.00 95.00 176.00 C 102.48 176.00 109.52 175.99 117.00 176.00 C 124.48 176.01 132.54 175.99 140.00 176.00 C 147.46 176.01 154.59 175.97 162.00 176.00 C 169.41 176.03 176.60 175.94 184.00 176.00 C 191.40 176.06 199.67 175.88 207.00 176.00 C 214.33 176.12 221.88 175.72 229.00 176.00 C 236.12 176.28 245.31 175.41 252.00 176.00 C 258.69 176.59 268.38 174.63 274.00 176.00 C 279.62 177.37 293.21 172.62 296.00 177.00
C 296.75 178.18 296.03 182.54 296.00 184.00
C 301.00 184.00 306.00 184.00 311.00 184.00
C 311.00 181.33 311.00 178.67 311.00 176.00
C 346.33 176.00 381.67 176.00 417.00 176.00
C 418.02 152.38 415.63 135.28 417.00 111.00 C 418.37 86.72 385.08 96.67 368.00 95.00
C 368.00 111.00 368.00 127.00 368.00 143.00
C 352.33 143.00 336.67 143.00 321.00 143.00
C 322.59 128.81 318.88 120.81 321.00 106.00 C 323.12 91.19 306.96 94.93 295.00 95.00 C 283.04 95.07 270.15 94.97 258.00 95.00 C 245.85 95.03 233.23 94.98 221.00 95.00 C 208.77 95.02 196.24 94.99 184.00 95.00 C 171.76 95.01 159.19 95.00 147.00 95.00 C 134.81 95.00 123.14 95.00 111.00 95.00
C 111.00 111.00 111.00 127.00 111.00 143.00
C 95.33 143.00 79.67 143.00 64.00 143.00
C 64.00 127.00 64.00 111.00 64.00 95.00
C 50.52 97.28 35.30 91.95 22.00 95.00
C 23.38 97.14 26.81 95.48 29.00 96.00
C 26.72 122.18 28.63 149.41 28.00 176.00
M 208.00 128.00 
C 208.00 133.00 208.00 138.00 208.00 143.00
C 203.00 143.00 198.00 143.00 193.00 143.00
C 194.42 139.29 190.77 131.78 193.78 128.78 C 196.79 125.78 204.27 129.41 208.00 128.00
M 238.00 143.00 
C 234.87 145.19 227.52 141.36 224.00 143.00
C 224.00 138.00 224.00 133.00 224.00 128.00
C 228.67 128.00 233.33 128.00 238.00 128.00
C 239.95 129.36 239.88 141.68 238.00 143.00 Z"/>
</g>
<g fill="#FFF9F7" fill-opacity="1.00" stroke="None">
<path d="
M 208.00 128.00 
C 204.27 129.41 196.79 125.78 193.78 128.78 C 190.77 131.78 194.42 139.29 193.00 143.00
C 198.00 143.00 203.00 143.00 208.00 143.00
C 208.00 138.00 208.00 133.00 208.00 128.00 Z"/>
</g>
<g fill="#FFFCFB" fill-opacity="1.00" stroke="None">
<path d="
M 238.00 143.00 
C 238.00 138.00 238.00 133.00 238.00 128.00
C 233.33 128.00 228.67 128.00 224.00 128.00
C 224.00 133.00 224.00 138.00 224.00 143.00
C 227.52 141.36 234.87 145.19 238.00 143.00 Z"/>
</g>
<g fill="#FFAE9B" fill-opacity="1.00" stroke="None">
<path d="
M 238.00 143.00 
C 239.88 141.68 239.95 129.36 238.00 128.00
C 238.00 133.00 238.00 138.00 238.00 143.00 Z"/>
</g>
<g fill="#542217" fill-opacity="1.00" stroke="None">
<path d="
M 296.00 177.00 
C 293.21 172.62 279.62 177.37 274.00 176.00 C 268.38 174.63 258.69 176.59 252.00 176.00 C 245.31 175.41 236.12 176.28 229.00 176.00 C 221.88 175.72 214.33 176.12 207.00 176.00 C 199.67 175.88 191.40 176.06 184.00 176.00 C 176.60 175.94 169.41 176.03 162.00 176.00 C 154.59 175.97 147.46 176.01 140.00 176.00 C 132.54 175.99 124.48 176.01 117.00 176.00 C 109.52 175.99 102.48 176.00 95.00 176.00 C 87.52 176.00 79.46 176.00 72.00 176.00 C 64.54 176.00 57.40 176.00 50.00 176.00 C 42.60 176.00 35.38 176.00 28.00 176.00
C 23.67 176.00 19.33 176.00 15.00 176.00
C 18.00 180.28 30.33 175.73 36.00 177.00 C 41.67 178.27 51.46 176.42 58.00 177.00 C 64.54 177.58 73.11 176.73 80.00 177.00 C 86.89 177.27 93.92 176.88 101.00 177.00 C 108.08 177.12 115.81 176.95 123.00 177.00 C 130.19 177.05 137.81 176.98 145.00 177.00 C 152.19 177.03 158.79 176.99 166.00 177.00 C 173.21 177.01 180.76 177.00 188.00 177.00 C 195.24 177.00 202.78 177.00 210.00 177.00 C 217.22 177.00 223.79 177.00 231.00 177.00 C 238.21 177.00 245.77 177.00 253.00 177.00 C 260.23 177.00 267.81 177.00 275.00 177.00 C 282.19 177.00 288.86 177.00 296.00 177.00 Z"/>
</g>
<g fill="#F63301" fill-opacity="1.00" stroke="None">
<path d="
M 15.00 208.00 
C 149.00 208.00 283.00 208.00 417.00 208.00
C 417.00 202.33 417.00 196.67 417.00 191.00
C 381.67 191.00 346.33 191.00 311.00 191.00
C 310.96 188.67 311.05 186.33 311.00 184.00
C 306.00 184.00 301.00 184.00 296.00 184.00
C 296.00 186.33 296.00 188.67 296.00 191.00
C 202.33 191.00 108.67 191.00 15.00 191.00
C 17.00 195.27 12.34 204.20 15.00 208.00 Z"/>
</g>
<g fill="#641400" fill-opacity="1.00" stroke="None">
<path d="
M 417.00 208.00 
C 283.00 208.00 149.00 208.00 15.00 208.00
C 18.08 212.40 31.25 207.62 37.00 209.00 C 42.75 210.38 52.25 208.40 59.00 209.00 C 65.75 209.60 74.85 208.72 82.00 209.00 C 89.15 209.28 96.65 208.88 104.00 209.00 C 111.35 209.12 119.57 208.94 127.00 209.00 C 134.43 209.06 141.53 208.98 149.00 209.00 C 156.47 209.02 164.53 208.99 172.00 209.00 C 179.47 209.01 186.56 209.00 194.00 209.00 C 201.44 209.00 208.52 209.00 216.00 209.00 C 223.48 209.00 231.51 209.00 239.00 209.00 C 246.49 209.00 253.51 209.01 261.00 209.00 C 268.49 208.99 276.52 209.02 284.00 209.00 C 291.48 208.98 298.56 209.05 306.00 209.00 C 313.44 208.95 321.65 209.11 329.00 209.00 C 336.35 208.89 343.85 209.26 351.00 209.00 C 358.15 208.74 367.26 209.55 374.00 209.00 C 380.74 208.45 390.27 210.28 396.00 209.00 C 401.73 207.72 413.97 212.33 417.00 208.00 Z"/>
</g>
<g fill="#878787" fill-opacity="1.00" stroke="None">
<path d="
M 15.00 224.00 
C 19.33 224.00 23.67 224.00 28.00 224.00
C 157.33 224.00 286.67 223.97 416.00 224.00
C 416.50 224.00 417.00 224.00 417.00 224.00
C 412.88 219.71 401.24 224.33 395.00 223.00 C 388.76 221.67 379.96 223.57 373.00 223.00 C 366.04 222.43 357.25 223.27 350.00 223.00 C 342.75 222.73 335.40 223.12 328.00 223.00 C 320.60 222.88 312.45 223.05 305.00 223.00 C 297.55 222.95 290.47 223.02 283.00 223.00 C 275.53 222.98 267.47 223.01 260.00 223.00 C 252.53 222.99 245.44 223.00 238.00 223.00 C 230.56 223.00 223.48 223.00 216.00 223.00 C 208.52 223.00 200.49 223.00 193.00 223.00 C 185.51 223.00 178.49 222.99 171.00 223.00 C 163.51 223.01 155.48 222.98 148.00 223.00 C 140.52 223.02 133.44 222.95 126.00 223.00 C 118.56 223.05 110.35 222.89 103.00 223.00 C 95.65 223.11 88.15 222.74 81.00 223.00 C 73.85 223.26 64.74 222.45 58.00 223.00 C 51.26 223.55 41.73 221.72 36.00 223.00 C 30.27 224.28 18.03 219.67 15.00 224.00 Z"/>
</g>
<g fill="#CCDCFA" fill-opacity="1.00" stroke="None">
<path d="
M 7.00 312.00 
C 5.24 315.77 9.35 323.64 7.00 327.00
C 9.67 327.00 12.33 327.00 15.00 327.00
C 16.13 345.51 13.49 370.09 15.00 388.00 C 16.51 405.91 6.42 433.00 30.00 433.00
C 24.59 430.08 29.14 417.89 28.00 412.00 C 26.86 406.11 28.49 396.00 28.00 389.00 C 27.51 382.00 28.23 372.45 28.00 365.00 C 27.77 357.55 28.10 349.67 28.00 342.00 C 27.90 334.33 28.05 325.77 28.00 318.00 C 27.95 310.23 28.02 302.81 28.00 295.00 C 27.98 287.19 28.01 278.84 28.00 271.00 C 27.99 263.16 28.00 255.86 28.00 248.00 C 28.00 240.14 28.00 231.90 28.00 224.00
C 23.67 224.00 19.33 224.00 15.00 224.00
C 15.00 253.33 15.00 282.67 15.00 312.00
C 12.33 312.00 9.67 312.00 7.00 312.00 Z"/>
</g>
<g fill="#FDFDFD" fill-opacity="1.00" stroke="None">
<path d="
M 30.00 433.00 
C 39.57 433.00 49.47 433.00 59.00 433.00 C 68.53 433.00 77.49 433.00 87.00 433.00 C 96.51 433.00 106.50 433.00 116.00 433.00 C 125.50 433.00 134.52 433.00 144.00 433.00 C 153.48 433.00 163.57 433.01 173.00 433.00 C 182.43 432.99 191.67 433.02 201.00 433.00 C 210.33 432.98 219.76 433.05 229.00 433.00 C 238.24 432.95 249.02 433.11 258.00 433.00 C 266.98 432.89 275.78 434.20 283.25 430.25 C 290.73 426.31 293.15 421.72 296.01 414.01 C 298.86 406.30 294.50 399.67 291.25 392.75 C 288.00 385.83 276.75 387.30 273.00 383.00
C 269.97 379.52 271.84 364.68 272.00 360.00 C 272.16 355.32 269.55 339.42 273.00 337.00
C 277.68 333.72 288.09 338.50 294.00 337.00 C 299.91 335.50 308.58 337.72 315.00 337.00 C 321.42 336.28 329.45 337.42 336.00 337.00 C 342.55 336.58 349.51 337.37 356.00 337.00 C 362.49 336.63 370.78 337.56 377.00 337.00 C 383.22 336.44 392.58 338.13 398.00 337.00 C 403.42 335.87 414.16 340.06 417.00 336.00
C 417.66 299.84 412.67 260.82 416.00 224.00
C 286.67 223.97 157.33 224.00 28.00 224.00
C 28.00 231.90 28.00 240.14 28.00 248.00 C 28.00 255.86 27.99 263.16 28.00 271.00 C 28.01 278.84 27.98 287.19 28.00 295.00 C 28.02 302.81 27.95 310.23 28.00 318.00 C 28.05 325.77 27.90 334.33 28.00 342.00 C 28.10 349.67 27.77 357.55 28.00 365.00 C 28.23 372.45 27.51 382.00 28.00 389.00 C 28.49 396.00 26.86 406.11 28.00 412.00 C 29.14 417.89 24.59 430.08 30.00 433.00
M 175.00 241.00 
C 177.05 243.92 174.50 252.21 175.00 256.00 C 175.50 259.79 175.71 267.15 175.00 271.00 C 174.29 274.85 177.16 283.92 175.00 287.00
C 172.96 289.92 163.75 287.66 160.00 288.00 C 156.25 288.34 147.81 288.53 144.00 288.00 C 140.19 287.47 130.14 290.05 128.00 287.00
C 125.83 283.90 128.64 276.04 128.00 272.00 C 127.36 267.96 127.77 260.13 128.00 256.00 C 128.23 251.87 126.26 243.74 129.00 241.00
C 132.14 237.86 147.47 239.92 152.00 240.00 C 156.53 240.08 172.65 237.64 175.00 241.00
M 192.00 287.00 
C 190.69 272.50 190.69 255.50 192.00 241.00
C 195.14 237.72 210.11 239.83 215.00 240.00 C 219.89 240.17 234.79 237.59 238.67 240.33 C 242.55 243.07 239.99 259.39 240.00 264.00 C 240.01 268.61 242.50 284.03 239.22 287.22 C 235.94 290.41 220.85 288.03 216.00 288.00 C 211.15 287.97 195.22 290.35 192.00 287.00
M 304.00 288.00 
C 295.58 287.23 285.23 289.02 277.00 288.00 C 268.77 286.98 256.59 292.41 256.00 282.00 C 255.41 271.58 257.39 264.88 256.00 254.00 C 254.61 243.12 257.81 238.63 269.00 240.00 C 280.19 241.37 286.12 239.82 297.00 240.00 C 307.88 240.18 303.39 251.16 304.00 260.00 C 304.61 268.84 303.54 279.04 304.00 288.00
M 239.00 352.00 
C 234.44 355.19 226.74 350.13 221.00 352.00 C 215.26 353.87 208.49 350.10 202.00 352.00 C 195.51 353.90 189.94 349.77 192.00 343.00 C 194.06 336.23 189.98 329.90 192.00 324.00 C 194.02 318.10 188.68 309.74 192.00 305.00
C 195.05 300.64 204.51 305.76 210.00 304.00 C 215.49 302.24 223.59 305.86 230.00 304.00 C 236.41 302.14 241.99 306.35 240.00 313.00 C 238.01 319.65 241.88 327.40 240.00 333.00 C 238.12 338.60 243.48 348.86 239.00 352.00
M 111.00 305.00 
C 111.00 320.67 111.00 336.33 111.00 352.00
C 95.33 352.00 79.67 352.00 64.00 352.00
C 64.00 336.33 64.00 320.67 64.00 305.00
C 79.67 305.00 95.33 305.00 111.00 305.00
M 175.00 305.00 
C 175.00 320.67 175.00 336.33 175.00 352.00
C 168.44 350.72 158.19 353.71 152.00 352.00 C 145.81 350.29 133.31 355.52 128.78 351.22 C 124.25 346.92 129.70 335.25 128.00 329.00 C 126.30 322.75 129.27 311.69 128.00 305.00
C 143.67 305.00 159.33 305.00 175.00 305.00
M 111.00 369.00 
C 111.00 384.67 111.00 400.33 111.00 416.00
C 95.33 416.00 79.67 416.00 64.00 416.00
C 64.00 400.33 64.00 384.67 64.00 369.00
C 79.67 369.00 95.33 369.00 111.00 369.00
M 175.00 369.00 
C 175.00 384.67 175.00 400.33 175.00 416.00
C 159.33 416.00 143.67 416.00 128.00 416.00
C 128.00 400.33 128.00 384.67 128.00 369.00
C 143.67 369.00 159.33 369.00 175.00 369.00
M 239.00 415.00 
C 236.38 417.62 229.06 415.95 225.00 416.00 C 220.94 416.05 213.07 416.83 209.00 416.00 C 204.93 415.17 196.24 418.27 193.00 416.00
C 190.08 413.96 192.34 404.75 192.00 401.00 C 191.66 397.25 191.47 388.81 192.00 385.00 C 192.53 381.19 189.95 371.14 193.00 369.00
C 195.92 366.95 204.21 369.50 208.00 369.00 C 211.79 368.50 219.15 368.29 223.00 369.00 C 226.85 369.71 235.92 366.84 239.00 369.00
C 242.02 371.12 239.53 380.12 240.00 384.00 C 240.47 387.88 240.30 395.93 240.00 400.00 C 239.70 404.07 241.74 412.26 239.00 415.00 Z"/>
</g>
<g fill="#CFCFCF" fill-opacity="1.00" stroke="None">
<path d="
M 417.00 336.00 
C 419.95 331.78 415.66 322.34 417.00 317.00 C 418.34 311.66 416.38 303.79 417.00 298.00 C 417.62 292.21 416.78 286.03 417.00 280.00 C 417.22 273.97 416.99 267.14 417.00 261.00 C 417.01 254.86 417.18 248.12 417.00 242.00 C 416.82 235.88 417.54 230.05 417.00 224.00
C 417.00 224.00 416.50 224.00 416.00 224.00
C 412.67 260.82 417.66 299.84 417.00 336.00 Z"/>
</g>
<g fill="#777777" fill-opacity="1.00" stroke="None">
<path d="
M 129.00 241.00 
C 132.40 238.62 139.68 242.09 144.00 241.00 C 148.32 239.91 154.22 241.54 159.00 241.00 C 163.78 240.46 170.08 241.40 175.00 241.00
C 172.65 237.64 156.53 240.08 152.00 240.00 C 147.47 239.92 132.14 237.86 129.00 241.00 Z"/>
</g>
<g fill="#7A7A7A" fill-opacity="1.00" stroke="None">
<path d="
M 192.00 241.00 
C 192.00 240.96 193.00 241.00 193.00 241.00
C 208.33 241.00 223.67 241.00 239.00 241.00
C 239.00 256.33 239.00 271.67 239.00 287.00
C 223.67 287.00 208.33 287.00 193.00 287.00
C 192.50 287.00 192.00 287.00 192.00 287.00
C 195.22 290.35 211.15 287.97 216.00 288.00 C 220.85 288.03 235.94 290.41 239.22 287.22 C 242.50 284.03 240.01 268.61 240.00 264.00 C 239.99 259.39 242.55 243.07 238.67 240.33 C 234.79 237.59 219.89 240.17 215.00 240.00 C 210.11 239.83 195.14 237.72 192.00 241.00 Z"/>
</g>
<g fill="#737373" fill-opacity="1.00" stroke="None">
<path d="
M 304.00 288.00 
C 303.54 279.04 304.61 268.84 304.00 260.00 C 303.39 251.16 307.88 240.18 297.00 240.00 C 286.12 239.82 280.19 241.37 269.00 240.00 C 257.81 238.63 254.61 243.12 256.00 254.00 C 257.39 264.88 255.41 271.58 256.00 282.00 C 256.59 292.41 268.77 286.98 277.00 288.00 C 285.23 289.02 295.58 287.23 304.00 288.00
M 303.00 241.00 
C 303.00 256.33 303.00 271.67 303.00 287.00
C 287.67 287.00 272.33 287.00 257.00 287.00
C 257.00 271.67 257.00 256.33 257.00 241.00
C 272.33 241.00 287.67 241.00 303.00 241.00 Z"/>
</g>
<g fill="#000000" fill-opacity="1.00" stroke="None">
<path d="
M 128.00 287.00 
C 143.67 287.00 159.33 287.00 175.00 287.00
C 177.16 283.92 174.29 274.85 175.00 271.00 C 175.71 267.15 175.50 259.79 175.00 256.00 C 174.50 252.21 177.05 243.92 175.00 241.00
C 170.08 241.40 163.78 240.46 159.00 241.00 C 154.22 241.54 148.32 239.91 144.00 241.00 C 139.68 242.09 132.40 238.62 129.00 241.00
C 126.26 243.74 128.23 251.87 128.00 256.00 C 127.77 260.13 127.36 267.96 128.00 272.00 C 128.64 276.04 125.83 283.90 128.00 287.00
M 160.00 256.00 
C 160.84 257.20 160.84 270.80 160.00 272.00
C 158.59 274.01 144.36 273.95 143.00 272.00
C 141.60 270.00 142.62 257.38 144.00 256.00
C 145.77 254.23 158.49 253.85 160.00 256.00 Z"/>
</g>
<g fill="#5F5F5F" fill-opacity="1.00" stroke="None">
<path d="
M 192.00 287.00 
C 192.00 287.00 192.50 287.00 193.00 287.00
C 194.31 272.50 194.31 255.50 193.00 241.00
C 193.00 241.00 192.00 240.96 192.00 241.00
C 190.69 255.50 190.69 272.50 192.00 287.00 Z"/>
</g>
<g fill="#000000" fill-opacity="1.00" stroke="None">
<path d="
M 193.00 287.00 
C 208.33 287.00 223.67 287.00 239.00 287.00
C 239.00 271.67 239.00 256.33 239.00 241.00
C 223.67 241.00 208.33 241.00 193.00 241.00
C 194.31 255.50 194.31 272.50 193.00 287.00
M 207.00 273.00 
C 207.00 267.00 207.00 261.00 207.00 255.00
C 217.32 255.51 224.99 251.46 225.00 264.00 C 225.01 276.54 217.31 272.47 207.00 273.00 Z"/>
</g>
<g fill="#000000" fill-opacity="1.00" stroke="None">
<path d="
M 303.00 241.00 
C 287.67 241.00 272.33 241.00 257.00 241.00
C 257.00 256.33 257.00 271.67 257.00 287.00
C 272.33 287.00 287.67 287.00 303.00 287.00
C 303.00 271.67 303.00 256.33 303.00 241.00
M 289.00 273.00 
C 281.40 271.17 271.57 277.74 271.00 267.00 C 270.43 256.26 272.28 254.46 283.00 255.00 C 293.72 255.54 287.17 265.43 289.00 273.00 Z"/>
</g>
<g fill="#656E7D" fill-opacity="1.00" stroke="None">
<path d="
M 144.00 256.00 
C 147.58 253.49 155.98 257.88 160.00 256.00
C 158.49 253.85 145.77 254.23 144.00 256.00 Z"/>
</g>
<g fill="#666F7F" fill-opacity="1.00" stroke="None">
<path d="
M 207.00 273.00 
C 217.31 272.47 225.01 276.54 225.00 264.00 C 224.99 251.46 217.32 255.51 207.00 255.00
C 207.00 261.00 207.00 267.00 207.00 273.00
M 224.00 256.00 
C 224.00 261.33 224.00 266.67 224.00 272.00
C 218.67 272.00 213.33 272.00 208.00 272.00
C 208.00 266.67 208.00 261.33 208.00 256.00
C 213.33 256.00 218.67 256.00 224.00 256.00 Z"/>
</g>
<g fill="#677080" fill-opacity="1.00" stroke="None">
<path d="
M 289.00 273.00 
C 287.17 265.43 293.72 255.54 283.00 255.00 C 272.28 254.46 270.43 256.26 271.00 267.00 C 271.57 277.74 281.40 271.17 289.00 273.00
M 288.00 256.00 
C 288.00 261.33 288.00 266.67 288.00 272.00
C 282.67 272.00 277.33 272.00 272.00 272.00
C 272.00 266.67 272.00 261.33 272.00 256.00
C 277.33 256.00 282.67 256.00 288.00 256.00 Z"/>
</g>
<g fill="#C7D8F6" fill-opacity="1.00" stroke="None">
<path d="
M 143.00 272.00 
C 148.67 272.00 154.33 272.00 160.00 272.00
C 160.84 270.80 160.84 257.20 160.00 256.00
C 155.98 257.88 147.58 253.49 144.00 256.00
C 142.62 257.38 141.60 270.00 143.00 272.00 Z"/>
</g>
<g fill="#CBDCFB" fill-opacity="1.00" stroke="None">
<path d="
M 224.00 256.00 
C 218.67 256.00 213.33 256.00 208.00 256.00
C 208.00 261.33 208.00 266.67 208.00 272.00
C 213.33 272.00 218.67 272.00 224.00 272.00
C 224.00 266.67 224.00 261.33 224.00 256.00 Z"/>
</g>
<g fill="#CBDCFB" fill-opacity="1.00" stroke="None">
<path d="
M 288.00 256.00 
C 282.67 256.00 277.33 256.00 272.00 256.00
C 272.00 261.33 272.00 266.67 272.00 272.00
C 277.33 272.00 282.67 272.00 288.00 272.00
C 288.00 266.67 288.00 261.33 288.00 256.00 Z"/>
</g>
<g fill="#697282" fill-opacity="1.00" stroke="None">
<path d="
M 160.00 272.00 
C 154.33 272.00 148.67 272.00 143.00 272.00
C 144.36 273.95 158.59 274.01 160.00 272.00 Z"/>
</g>
<g fill="#6F6F6F" fill-opacity="1.00" stroke="None">
<path d="
M 175.00 287.00 
C 159.33 287.00 143.67 287.00 128.00 287.00
C 130.14 290.05 140.19 287.47 144.00 288.00 C 147.81 288.53 156.25 288.34 160.00 288.00 C 163.75 287.66 172.96 289.92 175.00 287.00 Z"/>
</g>
<g fill="#8F8F8F" fill-opacity="1.00" stroke="None">
<path d="
M 192.00 305.00 
C 207.67 305.00 223.33 305.00 239.00 305.00
C 239.00 320.67 239.00 336.33 239.00 352.00
C 243.48 348.86 238.12 338.60 240.00 333.00 C 241.88 327.40 238.01 319.65 240.00 313.00 C 241.99 306.35 236.41 302.14 230.00 304.00 C 223.59 305.86 215.49 302.24 210.00 304.00 C 204.51 305.76 195.05 300.64 192.00 305.00 Z"/>
</g>
<g fill="#000000" fill-opacity="1.00" stroke="None">
<path d="
M 111.00 305.00 
C 95.33 305.00 79.67 305.00 64.00 305.00
C 64.00 320.67 64.00 336.33 64.00 352.00
C 79.67 352.00 95.33 352.00 111.00 352.00
C 111.00 336.33 111.00 320.67 111.00 305.00
M 96.00 320.00 
C 96.00 325.67 96.00 331.33 96.00 337.00
C 90.33 337.00 84.67 337.00 79.00 337.00
C 79.00 331.33 79.00 325.67 79.00 320.00
C 84.67 320.00 90.33 320.00 96.00 320.00 Z"/>
</g>
<g fill="#000000" fill-opacity="1.00" stroke="None">
<path d="
M 175.00 305.00 
C 159.33 305.00 143.67 305.00 128.00 305.00
C 129.27 311.69 126.30 322.75 128.00 329.00 C 129.70 335.25 124.25 346.92 128.78 351.22 C 133.31 355.52 145.81 350.29 152.00 352.00 C 158.19 353.71 168.44 350.72 175.00 352.00
C 175.00 336.33 175.00 320.67 175.00 305.00
M 160.00 320.00 
C 160.00 325.67 160.00 331.33 160.00 337.00
C 155.87 335.33 147.12 339.57 143.78 336.22 C 140.44 332.87 144.67 324.16 143.00 320.00
C 148.67 320.00 154.33 320.00 160.00 320.00 Z"/>
</g>
<g fill="#000000" fill-opacity="1.00" stroke="None">
<path d="
M 239.00 352.00 
C 239.00 336.33 239.00 320.67 239.00 305.00
C 223.33 305.00 207.67 305.00 192.00 305.00
C 188.68 309.74 194.02 318.10 192.00 324.00 C 189.98 329.90 194.06 336.23 192.00 343.00 C 189.94 349.77 195.51 353.90 202.00 352.00 C 208.49 350.10 215.26 353.87 221.00 352.00 C 226.74 350.13 234.44 355.19 239.00 352.00
M 224.00 336.00 
C 222.26 337.74 209.76 338.22 207.78 336.22 C 205.80 334.22 206.26 321.74 208.00 320.00
C 209.74 318.26 222.24 317.78 224.22 319.78 C 226.20 321.78 225.74 334.26 224.00 336.00 Z"/>
</g>
<g fill="#000000" fill-opacity="0.06" stroke="None">
<path d="
M 0.00 328.00 
C 2.33 328.94 5.37 327.16 7.00 327.00
C 9.35 323.64 5.24 315.77 7.00 312.00
C 4.67 312.00 2.33 312.00 0.00 312.00
L 0.00 328.00 Z"/>
</g>
<g fill="#515865" fill-opacity="1.00" stroke="None">
<path d="
M 208.00 320.00 
C 211.58 317.49 219.98 321.88 224.00 320.00
C 224.00 325.33 224.00 330.67 224.00 336.00
C 225.74 334.26 226.20 321.78 224.22 319.78 C 222.24 317.78 209.74 318.26 208.00 320.00 Z"/>
</g>
<g fill="#F76644" fill-opacity="1.00" stroke="None">
<path d="
M 96.00 320.00 
C 90.33 320.00 84.67 320.00 79.00 320.00
C 79.00 325.67 79.00 331.33 79.00 337.00
C 84.67 337.00 90.33 337.00 96.00 337.00
C 96.00 331.33 96.00 325.67 96.00 320.00 Z"/>
</g>
<g fill="#C3D4F1" fill-opacity="1.00" stroke="None">
<path d="
M 160.00 320.00 
C 154.33 320.00 148.67 320.00 143.00 320.00
C 144.67 324.16 140.44 332.87 143.78 336.22 C 147.12 339.57 155.87 335.33 160.00 337.00
C 160.00 331.33 160.00 325.67 160.00 320.00 Z"/>
</g>
<g fill="#C2D2F0" fill-opacity="1.00" stroke="None">
<path d="
M 224.00 336.00 
C 224.00 330.67 224.00 325.33 224.00 320.00
C 219.98 321.88 211.58 317.49 208.00 320.00
C 206.26 321.74 205.80 334.22 207.78 336.22 C 209.76 338.22 222.26 337.74 224.00 336.00 Z"/>
</g>
<g fill="#878787" fill-opacity="1.00" stroke="None">
<path d="
M 273.00 383.00 
C 273.00 367.67 273.00 352.33 273.00 337.00
C 269.55 339.42 272.16 355.32 272.00 360.00 C 271.84 364.68 269.97 379.52 273.00 383.00 Z"/>
</g>
<g fill="#6F1F0B" fill-opacity="1.00" stroke="None">
<path d="
M 288.00 372.00 
C 286.63 369.22 288.00 362.17 288.00 359.00
C 288.00 356.67 288.00 354.33 288.00 352.00
C 285.44 353.79 286.33 369.69 288.00 372.00 Z"/>
</g>
<g fill="#FB6845" fill-opacity="1.00" stroke="None">
<path d="
M 288.00 359.00 
C 327.95 368.92 337.52 430.40 301.00 451.00
C 311.76 453.32 324.49 451.34 336.00 452.00
C 336.50 452.00 337.00 452.00 337.00 452.00
C 337.00 418.67 337.00 385.33 337.00 352.00
C 331.77 352.43 325.08 351.42 320.00 352.00 C 314.92 352.58 308.60 350.83 304.00 352.00 C 299.40 353.17 291.62 349.47 288.00 352.00
C 288.00 354.33 288.00 356.67 288.00 359.00 Z"/>
</g>
<g fill="#FCEB87" fill-opacity="1.00" stroke="None">
<path d="
M 352.00 452.00 
C 400.34 452.00 448.66 452.00 497.00 452.00
C 497.00 449.33 497.00 446.67 497.00 444.00
C 488.89 441.85 482.49 435.10 478.25 427.75 C 474.02 420.39 470.58 407.48 474.02 399.02 C 477.47 390.57 478.43 382.41 487.75 377.75 C 497.08 373.10 499.09 363.10 497.00 352.00
C 448.66 352.00 400.34 352.00 352.00 352.00
C 352.00 385.33 352.00 418.67 352.00 452.00
M 456.00 369.00 
C 456.00 374.00 456.00 379.00 456.00 384.00
C 426.67 384.00 397.33 384.00 368.00 384.00
C 368.00 379.00 368.00 374.00 368.00 369.00
C 397.33 369.00 426.67 369.00 456.00 369.00
M 456.00 401.00 
C 456.00 406.00 456.00 411.00 456.00 416.00
C 426.67 416.00 397.33 416.00 368.00 416.00
C 368.00 411.00 368.00 406.00 368.00 401.00
C 397.33 401.00 426.67 401.00 456.00 401.00
M 456.00 433.00 
C 456.00 438.00 456.00 443.00 456.00 448.00
C 426.67 448.00 397.33 448.00 368.00 448.00
C 368.00 443.00 368.00 438.00 368.00 433.00
C 397.33 433.00 426.67 433.00 456.00 433.00 Z"/>
</g>
<g fill="#FA3502" fill-opacity="1.00" stroke="None">
<path d="
M 288.00 372.00 
C 292.10 377.68 300.48 378.08 304.25 385.75 C 308.01 393.43 311.29 399.70 311.00 409.00 C 310.71 418.30 307.81 424.30 303.75 431.75 C 299.70 439.20 291.84 438.99 288.00 445.00
C 285.57 450.62 289.82 459.12 288.00 465.00
C 291.12 467.18 299.99 464.40 304.00 465.00 C 308.01 465.60 315.99 465.60 320.00 465.00 C 324.01 464.40 332.88 467.18 336.00 465.00
C 336.29 460.69 335.61 456.30 336.00 452.00
C 324.49 451.34 311.76 453.32 301.00 451.00
C 337.52 430.40 327.95 368.92 288.00 359.00
C 288.00 362.17 286.63 369.22 288.00 372.00 Z"/>
</g>
<g fill="#000000" fill-opacity="1.00" stroke="None">
<path d="
M 111.00 369.00 
C 95.33 369.00 79.67 369.00 64.00 369.00
C 64.00 384.67 64.00 400.33 64.00 416.00
C 79.67 416.00 95.33 416.00 111.00 416.00
C 111.00 400.33 111.00 384.67 111.00 369.00
M 96.00 384.00 
C 96.00 389.67 96.00 395.33 96.00 401.00
C 90.33 401.00 84.67 401.00 79.00 401.00
C 79.00 395.33 79.00 389.67 79.00 384.00
C 84.67 384.00 90.33 384.00 96.00 384.00 Z"/>
</g>
<g fill="#000000" fill-opacity="1.00" stroke="None">
<path d="
M 175.00 369.00 
C 159.33 369.00 143.67 369.00 128.00 369.00
C 128.00 384.67 128.00 400.33 128.00 416.00
C 143.67 416.00 159.33 416.00 175.00 416.00
C 175.00 400.33 175.00 384.67 175.00 369.00
M 160.00 384.00 
C 160.00 389.67 160.00 395.33 160.00 401.00
C 154.33 401.00 148.67 401.00 143.00 401.00
C 143.00 395.33 143.00 389.67 143.00 384.00
C 148.67 384.00 154.33 384.00 160.00 384.00 Z"/>
</g>
<g fill="#5F5F5F" fill-opacity="1.00" stroke="None">
<path d="
M 193.00 416.00 
C 193.00 400.33 193.00 384.67 193.00 369.00
C 189.95 371.14 192.53 381.19 192.00 385.00 C 191.47 388.81 191.66 397.25 192.00 401.00 C 192.34 404.75 190.08 413.96 193.00 416.00 Z"/>
</g>
<g fill="#000000" fill-opacity="1.00" stroke="None">
<path d="
M 193.00 416.00 
C 196.24 418.27 204.93 415.17 209.00 416.00 C 213.07 416.83 220.94 416.05 225.00 416.00 C 229.06 415.95 236.38 417.62 239.00 415.00
C 241.38 411.60 237.91 404.32 239.00 400.00 C 240.09 395.68 238.46 389.78 239.00 385.00 C 239.54 380.22 238.60 373.92 239.00 369.00
C 235.92 366.84 226.85 369.71 223.00 369.00 C 219.15 368.29 211.79 368.50 208.00 369.00 C 204.21 369.50 195.92 366.95 193.00 369.00
C 193.00 384.67 193.00 400.33 193.00 416.00
M 224.00 401.00 
C 222.01 402.39 210.01 401.99 207.78 400.22 C 205.55 398.45 207.83 386.97 207.00 384.00
C 212.67 384.00 218.33 384.00 224.00 384.00
C 226.01 385.41 225.95 399.64 224.00 401.00 Z"/>
</g>
<g fill="#878787" fill-opacity="1.00" stroke="None">
<path d="
M 239.00 415.00 
C 241.74 412.26 239.70 404.07 240.00 400.00 C 240.30 395.93 240.47 387.88 240.00 384.00 C 239.53 380.12 242.02 371.12 239.00 369.00
C 238.60 373.92 239.54 380.22 239.00 385.00 C 238.46 389.78 240.09 395.68 239.00 400.00 C 237.91 404.32 241.38 411.60 239.00 415.00 Z"/>
</g>
<g fill="#000000" fill-opacity="1.00" stroke="None">
<path d="
M 456.00 369.00 
C 426.67 369.00 397.33 369.00 368.00 369.00
C 368.00 374.00 368.00 379.00 368.00 384.00
C 397.33 384.00 426.67 384.00 456.00 384.00
C 456.00 379.00 456.00 374.00 456.00 369.00 Z"/>
</g>
<g fill="#000000" fill-opacity="0.02" stroke="None">
<path d="
M 512.00 433.00 
L 512.00 383.00
C 498.64 384.26 487.88 395.09 488.02 408.97 C 488.16 422.85 501.04 432.76 512.00 433.00 Z"/>
</g>
<g fill="#F96745" fill-opacity="1.00" stroke="None">
<path d="
M 96.00 384.00 
C 90.33 384.00 84.67 384.00 79.00 384.00
C 79.00 389.67 79.00 395.33 79.00 401.00
C 84.67 401.00 90.33 401.00 96.00 401.00
C 96.00 395.33 96.00 389.67 96.00 384.00 Z"/>
</g>
<g fill="#C4D5F3" fill-opacity="1.00" stroke="None">
<path d="
M 160.00 384.00 
C 154.33 384.00 148.67 384.00 143.00 384.00
C 143.00 389.67 143.00 395.33 143.00 401.00
C 148.67 401.00 154.33 401.00 160.00 401.00
C 160.00 395.33 160.00 389.67 160.00 384.00 Z"/>
</g>
<g fill="#C3D4F1" fill-opacity="1.00" stroke="None">
<path d="
M 224.00 401.00 
C 224.00 395.33 224.00 389.67 224.00 384.00
C 218.33 384.00 212.67 384.00 207.00 384.00
C 207.83 386.97 205.55 398.45 207.78 400.22 C 210.01 401.99 222.01 402.39 224.00 401.00 Z"/>
</g>
<g fill="#565E6B" fill-opacity="1.00" stroke="None">
<path d="
M 224.00 401.00 
C 225.95 399.64 226.01 385.41 224.00 384.00
C 224.00 389.67 224.00 395.33 224.00 401.00 Z"/>
</g>
<g fill="#000000" fill-opacity="1.00" stroke="None">
<path d="
M 456.00 401.00 
C 426.67 401.00 397.33 401.00 368.00 401.00
C 368.00 406.00 368.00 411.00 368.00 416.00
C 397.33 416.00 426.67 416.00 456.00 416.00
C 456.00 411.00 456.00 406.00 456.00 401.00 Z"/>
</g>
<g fill="#000000" fill-opacity="0.01" stroke="None">
<path d="
M 0.00 512.00 
L 512.00 512.00
L 512.00 480.00
C 432.33 480.00 352.67 480.00 273.00 480.00
C 273.00 469.00 273.00 458.00 273.00 447.00
C 247.50 447.21 220.33 446.72 195.00 447.00 C 169.67 447.28 142.82 446.46 118.00 447.00 C 93.18 447.54 64.74 445.85 41.00 447.00 C 17.26 448.15 5.01 447.33 0.00 427.00
L 0.00 512.00 Z"/>
</g>
<g fill="#000000" fill-opacity="1.00" stroke="None">
<path d="
M 456.00 433.00 
C 426.67 433.00 397.33 433.00 368.00 433.00
C 368.00 438.00 368.00 443.00 368.00 448.00
C 397.33 448.00 426.67 448.00 456.00 448.00
C 456.00 443.00 456.00 438.00 456.00 433.00 Z"/>
</g>
<g fill="#6E1600" fill-opacity="1.00" stroke="None">
<path d="
M 288.00 465.00 
C 289.82 459.12 285.57 450.62 288.00 445.00
C 286.50 447.36 285.30 463.11 288.00 465.00 Z"/>
</g>
<g fill="#A52302" fill-opacity="1.00" stroke="None">
<path d="
M 336.00 465.00 
C 338.35 463.36 337.00 454.89 337.00 452.00
C 337.00 452.00 336.50 452.00 336.00 452.00
C 335.61 456.30 336.29 460.69 336.00 465.00 Z"/>
</g>
<g fill="#FDE108" fill-opacity="1.00" stroke="None">
<path d="
M 497.00 452.00 
C 448.66 452.00 400.34 452.00 352.00 452.00
C 352.00 456.33 352.00 460.67 352.00 465.00
C 400.33 465.00 448.67 465.00 497.00 465.00
C 497.00 460.67 497.00 456.33 497.00 452.00 Z"/>
</g>
</svg>